<?xml version="1.0" encoding="utf-8"?>
<!-- Generator: Adobe Illustrator 27.5.0, SVG Export Plug-In . SVG Version: 6.00 Build 0)  -->
<svg version="1.1" xmlns="http://www.w3.org/2000/svg" xmlns:xlink="http://www.w3.org/1999/xlink" x="0px" y="0px"
	viewBox="0 0 500 500" style="enable-background:new 0 0 500 500;" xml:space="preserve">
	<g id="Background_Complete">
		<g>
			<rect y="382.398" style="fill:#EBEBEB;" width="500" height="0.25" />
			<rect x="416.779" y="398.494" style="fill:#EBEBEB;" width="33.122" height="0.25" />
			<rect x="322.527" y="401.208" style="fill:#EBEBEB;" width="8.693" height="0.25" />
			<rect x="396.586" y="389.208" style="fill:#EBEBEB;" width="19.192" height="0.25" />
			<rect x="52.459" y="390.888" style="fill:#EBEBEB;" width="43.193" height="0.25" />
			<rect x="104.556" y="390.888" style="fill:#EBEBEB;" width="6.333" height="0.25" />
			<rect x="131.471" y="395.111" style="fill:#EBEBEB;" width="93.676" height="0.25" />
			<path style="fill:#EBEBEB;" d="M237.014,337.8H43.915c-3.147,0-5.708-2.561-5.708-5.708V60.66c0-3.147,2.561-5.708,5.708-5.708
			h193.099c3.146,0,5.707,2.561,5.707,5.708v271.432C242.721,335.239,240.16,337.8,237.014,337.8z M43.915,55.203
			c-3.01,0-5.458,2.448-5.458,5.458v271.432c0,3.01,2.448,5.458,5.458,5.458h193.099c3.009,0,5.457-2.448,5.457-5.458V60.66
			c0-3.009-2.448-5.458-5.457-5.458H43.915z" />
			<path style="fill:#EBEBEB;" d="M453.31,337.8H260.212c-3.147,0-5.707-2.561-5.707-5.708V60.66c0-3.147,2.561-5.708,5.707-5.708
			H453.31c3.148,0,5.708,2.561,5.708,5.708v271.432C459.019,335.239,456.458,337.8,453.31,337.8z M260.212,55.203
			c-3.009,0-5.457,2.448-5.457,5.458v271.432c0,3.01,2.448,5.458,5.457,5.458H453.31c3.01,0,5.458-2.448,5.458-5.458V60.66
			c0-3.009-2.448-5.458-5.458-5.458H260.212z" />
		</g>
		<g>
			<g>
				<path style="fill:#E0E0E0;" d="M234.665,91.836H52.291c-1.172,0-2.122-0.95-2.122-2.122v-3.186c0-1.172,0.95-2.122,2.122-2.122
				h182.374c1.172,0,2.122,0.95,2.122,2.122v3.186C236.786,90.886,235.836,91.836,234.665,91.836z" />
				<rect x="61.255" y="90.317" style="fill:#E6E6E6;" width="164.446" height="145.921" />
				<rect x="65.373" y="94.317" style="fill:#F0F0F0;" width="156" height="138" />
				<polygon style="fill:#FFFFFF;"
					points="101.984,94.317 65.373,232.017 65.373,167.312 84.703,94.317 			" />
				<polygon style="fill:#FFFFFF;"
					points="114.951,94.317 78.018,232.316 72.123,232.316 109.056,94.317 			" />
				<polygon style="fill:#FFFFFF;"
					points="221.373,181.395 221.373,203.447 213.9,232.316 208.005,232.316 			" />
				<rect x="117.155" y="91.836" style="fill:#E6E6E6;" width="2.628" height="143.563" />
				<rect x="168.082" y="91.836" style="fill:#E6E6E6;" width="2.628" height="143.563" />
				<g>
					<path style="fill:#E0E0E0;" d="M198.9,86.78c0,0,3.782,49.37,25.54,74.531c0,0-15.847,63.535-15.836,85.689l29.451-5.436
					l-10.615-79.885l5.077-74.899H198.9z" />
					<path style="fill:#E0E0E0;" d="M88.055,86.78c0,0-3.782,49.37-25.54,74.531c0,0,15.847,63.535,15.836,85.689L48.9,241.564
					l10.615-79.885L54.439,86.78H88.055z" />
				</g>
			</g>
			<g>
				<rect x="326.248" y="122.372" style="fill:#E0E0E0;" width="130.438" height="6.702" />
				<rect x="332.251" y="97.668" style="fill:#EBEBEB;" width="5.746" height="24.704" />
				<rect x="360.038" y="97.668" style="fill:#EBEBEB;" width="5.747" height="24.704" />

				<rect x="393.722" y="97.359" transform="matrix(0.9855 -0.1698 0.1698 0.9855 -12.8715 68.9517)"
					style="fill:#EBEBEB;" width="5.747" height="24.704" />
				<rect x="339.372" y="100.924" style="fill:#EBEBEB;" width="5.747" height="21.448" />
				<rect x="352.58" y="100.924" style="fill:#EBEBEB;" width="5.747" height="21.448" />
				<rect x="385.92" y="100.924" style="fill:#EBEBEB;" width="5.747" height="21.448" />

				<rect x="369.98" y="100.556" transform="matrix(0.9762 -0.2169 0.2169 0.9762 -15.2602 83.5186)"
					style="fill:#EBEBEB;" width="5.747" height="21.448" />
				<rect x="347.214" y="96.441" style="fill:#EBEBEB;" width="2.873" height="25.93" />
				<rect x="381.395" y="96.441" style="fill:#EBEBEB;" width="2.873" height="25.93" />
				<rect x="416.17" y="102.819" style="fill:#EBEBEB;" width="28" height="19.331" />
			</g>
			<g>

				<rect x="326.248" y="172.403" transform="matrix(-1 -1.224647e-16 1.224647e-16 -1 782.9335 351.5086)"
					style="fill:#E0E0E0;" width="130.438" height="6.702" />

				<rect x="444.936" y="147.699" transform="matrix(-1 -1.224647e-16 1.224647e-16 -1 895.6178 320.1029)"
					style="fill:#EBEBEB;" width="5.747" height="24.704" />

				<rect x="417.149" y="147.699" transform="matrix(-1 -1.224647e-16 1.224647e-16 -1 840.0445 320.1029)"
					style="fill:#EBEBEB;" width="5.747" height="24.704" />

				<rect x="383.465" y="147.391" transform="matrix(-0.9855 -0.1698 0.1698 -0.9855 739.9317 382.7816)"
					style="fill:#EBEBEB;" width="5.746" height="24.704" />

				<rect x="437.815" y="150.955" transform="matrix(-1 -1.224647e-16 1.224647e-16 -1 881.3768 323.3584)"
					style="fill:#EBEBEB;" width="5.746" height="21.448" />

				<rect x="424.607" y="150.955" transform="matrix(-1 -1.224647e-16 1.224647e-16 -1 854.9601 323.3584)"
					style="fill:#EBEBEB;" width="5.747" height="21.448" />

				<rect x="391.267" y="150.955" transform="matrix(-1 -1.224647e-16 1.224647e-16 -1 788.2811 323.3584)"
					style="fill:#EBEBEB;" width="5.747" height="21.448" />

				<rect x="407.206" y="150.587" transform="matrix(-0.9762 -0.2169 0.2169 -0.9762 775.4103 407.7262)"
					style="fill:#EBEBEB;" width="5.747" height="21.449" />

				<rect x="432.846" y="146.473" transform="matrix(-1 -1.224647e-16 1.224647e-16 -1 868.5654 318.8764)"
					style="fill:#EBEBEB;" width="2.873" height="25.93" />

				<rect x="398.666" y="146.473" transform="matrix(-1 -1.224647e-16 1.224647e-16 -1 800.2046 318.8764)"
					style="fill:#EBEBEB;" width="2.873" height="25.93" />

				<rect x="338.764" y="152.851" transform="matrix(-1 -1.224647e-16 1.224647e-16 -1 705.5274 325.0327)"
					style="fill:#EBEBEB;" width="28" height="19.331" />
			</g>
			<g>
				<g>
					<path style="fill:#EBEBEB;" d="M435.5,315.916h-123v-6.479c0-2.335,1.893-4.228,4.228-4.228h114.545
					c2.335,0,4.228,1.893,4.228,4.228V315.916z" />
					<polygon style="fill:#F5F5F5;"
						points="432.494,311.83 315.506,311.83 309.723,311.83 309.494,311.83 309.494,382.364 
					315.506,382.364 315.506,320.002 432.494,320.002 432.494,382.364 438.506,382.364 438.506,320.002 438.506,311.83 				" />
				</g>
				<g>
					<path style="fill:#EBEBEB;" d="M187.5,315.916h-123v-6.479c0-2.335,1.893-4.228,4.228-4.228h114.545
					c2.335,0,4.228,1.893,4.228,4.228V315.916z" />
					<polygon style="fill:#F5F5F5;"
						points="184.494,311.83 67.506,311.83 61.723,311.83 61.494,311.83 61.494,382.364 
					67.506,382.364 67.506,320.002 184.494,320.002 184.494,382.364 190.506,382.364 190.506,320.002 190.506,311.83 				" />
				</g>
			</g>
		</g>
	</g>
	<g id="Backgorund_Simple" style="display:none;">
		<g style="display:inline;">
			<path style="fill:#C92C6D;" d="M152.013,105.29c34.43-16.528,58.234,24.19,75.529,47.004c10.848,14.31,26.226,28.341,44.67,32.285
			c38,8.123,67.091-30.003,104.792-25.227c37.426,4.741,50.796,42.762,53.469,75.749c7.434,91.718-95.956,125.584-170.102,119.437
			c-7.371-0.611-14.746-1.826-21.971-3.389c-31.657-6.848-63.335-19.038-88.051-40.504
			c-48.051-41.733-60.064-121.426-28.193-176.209C128.762,123.079,139.578,111.26,152.013,105.29z" />
			<path style="opacity:0.9;fill:#FFFFFF;enable-background:new    ;" d="M152.013,105.29c34.43-16.528,58.234,24.19,75.529,47.004
			c10.848,14.31,26.226,28.341,44.67,32.285c38,8.123,67.091-30.003,104.792-25.227c37.426,4.741,50.796,42.762,53.469,75.749
			c7.434,91.718-95.956,125.584-170.102,119.437c-7.371-0.611-14.746-1.826-21.971-3.389c-31.657-6.848-63.335-19.038-88.051-40.504
			c-48.051-41.733-60.064-121.426-28.193-176.209C128.762,123.079,139.578,111.26,152.013,105.29z" />
		</g>
	</g>
	<g id="Shadow_1_">
		<ellipse id="_x3C_Path_x3E__359_" style="fill:#F5F5F5;" cx="250" cy="416.238" rx="193.889" ry="11.323" />
	</g>
	<g id="Piano">
		<g>
			<g>
				<path style="fill:#C92C6D;" d="M217.456,196.74h-2.334v3.476h2.334v26.153h-2.026l-9.222,43.794l-41.955,6.1v19.397h3.506
				v110.976h-3.506v6.793h53.203v0.25h179.726V196.74H217.456z M174.769,406.635V295.659h42.687v110.976H174.769z" />
			</g>
			<polygon style="opacity:0.3;enable-background:new    ;" points="217.456,295.659 347.456,295.659 347.456,360.483 
			217.456,399.821 		" />
			<g>
				<path style="fill:#C92C6D;"
					d="M347.456,196.74h-2.334v3.476h2.334v26.153h-2.026l-9.222,43.794l-41.955,6.1v19.397h3.506
				v110.976h-3.506v6.793h53.203v0.25h49.726V200.216v-3.476H347.456z M304.769,406.635V295.659h42.687v110.976H304.769z" />
				<path style="opacity:0.2;enable-background:new    ;" d="M347.456,196.74h-2.334v3.476h2.334v26.153h-2.026l-9.222,43.794
				l-41.955,6.1v19.397h3.506v110.976h-3.506v6.793h53.203v0.25h49.726V200.216v-3.476H347.456z M304.769,406.635V295.659h42.687
				v110.976H304.769z" />
			</g>
			<rect x="167.758" y="295.659" style="opacity:0.2;enable-background:new    ;" width="7.011"
				height="110.976" />
			<rect x="297.758" y="295.659" style="opacity:0.2;enable-background:new    ;" width="7.011"
				height="110.976" />
			<polygon style="opacity:0.2;enable-background:new    ;" points="217.456,200.216 347.456,200.216 347.456,204.842 
			217.456,202.498 		" />
			<polygon style="opacity:0.2;enable-background:new    ;"
				points="217.456,226.369 347.456,226.369 217.456,225.11 		" />
			<polygon style="opacity:0.2;enable-background:new    ;" points="168.583,282.656 290.956,282.656 290.956,275.382 
			309.813,272.978 195.747,272.978 168.583,276.929 		" />
			<polygon style="opacity:0.2;enable-background:new    ;" points="206.208,270.163 336.208,270.163 297.758,265.198 
			303.769,232.099 248.363,232.099 239.791,268.758 		" />
			<polygon style="fill:#FFFFFF;"
				points="173.623,281.615 290.956,281.615 290.956,276.883 196.113,276.883 173.623,280.249 		" />
			<rect x="173.623" y="280.249" style="opacity:0.1;enable-background:new    ;" width="117.333"
				height="1.366" />
			<polygon style="fill:#263238;" points="198.945,276.275 190.242,278.022 190.242,278.521 193.505,278.521 201.319,276.883 
			201.319,276.275 		" />
			<polygon style="fill:#263238;" points="207.022,276.275 198.319,278.022 198.319,278.521 201.582,278.521 209.396,276.883 
			209.396,276.275 		" />
			<polygon style="fill:#263238;" points="215.099,276.275 206.396,278.022 206.396,278.521 209.659,278.521 217.473,276.883 
			217.473,276.275 		" />
			<polygon style="fill:#263238;" points="223.176,276.275 214.473,278.022 214.473,278.521 217.736,278.521 225.549,276.883 
			225.549,276.275 		" />
			<polygon style="fill:#263238;" points="231.253,276.275 222.549,278.022 222.549,278.521 225.813,278.521 233.626,276.883 
			233.626,276.275 		" />
			<polygon style="fill:#263238;" points="239.33,276.275 230.626,278.022 230.626,278.521 233.89,278.521 241.703,276.883 
			241.703,276.275 		" />
			<polygon style="fill:#263238;" points="247.407,276.275 238.703,278.022 238.703,278.521 241.967,278.521 249.78,276.883 
			249.78,276.275 		" />
			<polygon style="fill:#263238;" points="255.484,276.275 246.78,278.022 246.78,278.521 250.044,278.521 257.857,276.883 
			257.857,276.275 		" />
			<polygon style="fill:#263238;" points="263.56,276.275 254.857,278.022 254.857,278.521 258.121,278.521 265.934,276.883 
			265.934,276.275 		" />
			<polygon style="fill:#263238;" points="271.637,276.275 262.934,278.022 262.934,278.521 266.198,278.521 274.011,276.883 
			274.011,276.275 		" />
			<polygon style="fill:#263238;" points="279.714,276.275 271.011,278.022 271.011,278.521 274.275,278.521 282.088,276.883 
			282.088,276.275 		" />
			<polygon style="fill:#263238;" points="287.791,276.275 279.088,278.022 279.088,278.521 282.352,278.521 290.165,276.883 
			290.165,276.275 		" />
		</g>
		<g>
			<g>
				<path style="fill:#C92C6D;" d="M380.118,152.748c-1.338-2.203-3.541-0.287-3.541-0.287c0.315-4.222-3.57-7.11-3.57-7.11
				s4.514,0,5.143-4.307c0.63-4.307-1.574-2.303-3.641-2.333c-2.067-0.029-4.228,6.01-1.502,9.407
				c2.726,3.397,1.996,9.194-4.3,14.771c-1.535,1.36-2.58,3.171-3.285,5.131c0.475-5.123,0.743-12.341-0.764-17.16
				c-2.56-8.184,2.319-10.387,3.735-14.479c1.417-4.092-3.735-7.555-3.735-7.555s4.837-2.203,2.476-4.722
				c-2.361-2.518-7.24-2.175-7.24,1.116c0,3.291,3.305,4.55,3.305,4.55s3.777,3.935,3.777,5.981c0,2.046-3.777,6.453-3.777,6.453
				s1.731-3.772-1.731-3.932c-3.462-0.16-4.564,4.404-3.148,6.45c1.416,2.046,3.777,0.315,3.777,0.315s0.275,4.407,1.082,7.082
				c0.355,1.177,0.188,5.793-0.11,10.596c-0.698-1.734-1.684-3.323-3.066-4.548c-6.296-5.576-7.026-11.374-4.3-14.77
				c2.726-3.397,0.565-9.436-1.502-9.407c-2.067,0.029-4.271-1.974-3.641,2.333c0.63,4.307,5.143,4.307,5.143,4.307
				s-3.884,2.888-3.569,7.11c0,0-2.203-1.916-3.541,0.287c-2.388,3.934,3.148,6.374,4.078,4.438c0,0,11.74,8.31,8.906,20.272
				l0.658,0.971c-0.084,0.965-0.138,1.547-0.138,1.547l0.918-0.395l1.045,1.542c-0.054,2.99,0.267,5.2,0.267,5.2l2.807-4.143
				c-2.833-11.961,8.906-20.272,8.906-20.272C376.971,159.122,382.507,156.682,380.118,152.748z" />
				<path style="opacity:0.2;enable-background:new    ;" d="M380.118,152.748c-1.338-2.203-3.541-0.287-3.541-0.287
				c0.315-4.222-3.57-7.11-3.57-7.11s4.514,0,5.143-4.307c0.63-4.307-1.574-2.303-3.641-2.333c-2.067-0.029-4.228,6.01-1.502,9.407
				c2.726,3.397,1.996,9.194-4.3,14.771c-1.535,1.36-2.58,3.171-3.285,5.131c0.475-5.123,0.743-12.341-0.764-17.16
				c-2.56-8.184,2.319-10.387,3.735-14.479c1.417-4.092-3.735-7.555-3.735-7.555s4.837-2.203,2.476-4.722
				c-2.361-2.518-7.24-2.175-7.24,1.116c0,3.291,3.305,4.55,3.305,4.55s3.777,3.935,3.777,5.981c0,2.046-3.777,6.453-3.777,6.453
				s1.731-3.772-1.731-3.932c-3.462-0.16-4.564,4.404-3.148,6.45c1.416,2.046,3.777,0.315,3.777,0.315s0.275,4.407,1.082,7.082
				c0.355,1.177,0.188,5.793-0.11,10.596c-0.698-1.734-1.684-3.323-3.066-4.548c-6.296-5.576-7.026-11.374-4.3-14.77
				c2.726-3.397,0.565-9.436-1.502-9.407c-2.067,0.029-4.271-1.974-3.641,2.333c0.63,4.307,5.143,4.307,5.143,4.307
				s-3.884,2.888-3.569,7.11c0,0-2.203-1.916-3.541,0.287c-2.388,3.934,3.148,6.374,4.078,4.438c0,0,11.74,8.31,8.906,20.272
				l0.658,0.971c-0.084,0.965-0.138,1.547-0.138,1.547l0.918-0.395l1.045,1.542c-0.054,2.99,0.267,5.2,0.267,5.2l2.807-4.143
				c-2.833-11.961,8.906-20.272,8.906-20.272C376.971,159.122,382.507,156.682,380.118,152.748z" />
			</g>
			<polygon style="fill:#C92C6D;" points="373.008,196.344 369.222,174.655 370.292,168.344 358.362,168.344 359.432,174.655 
			355.647,196.344 		" />
			<polygon style="opacity:0.5;fill:#FFFFFF;enable-background:new    ;" points="373.008,196.344 369.222,174.655 370.292,168.344 
			358.362,168.344 359.432,174.655 355.647,196.344 		" />
		</g>
		<g>
			<polygon style="fill:#C92C6D;" points="266.615,177.155 273.29,196.74 253.835,196.74 		" />
			<polygon style="opacity:0.3;enable-background:new    ;"
				points="266.615,177.155 273.29,196.74 253.835,196.74 		" />
			<polygon style="fill:#C92C6D;"
				points="266.736,196.936 244.495,196.954 250.575,168.254 272.816,168.236 		" />
			<polygon style="opacity:0.2;enable-background:new    ;" points="266.736,196.936 244.495,196.954 250.575,168.254 
			272.816,168.236 		" />
			<polygon style="opacity:0.5;fill:#FFFFFF;enable-background:new    ;" points="265.221,195.593 246.606,195.488 252.09,169.597 
			270.706,169.702 		" />
			<path style="opacity:0.2;fill:#FFFFFF;enable-background:new    ;" d="M258.957,171.755c0,0-3.218,1.213-6.129,8.616
			c-1.997,5.078,2.05,5.228,2.05,5.228s-0.531,3.854-1.551,4.72c-1.609,1.363-5.91,1.345-5.91,1.345l-0.81,3.824l18.615,0.105
			l0.837-3.951c0,0-5.364-0.417-5.743-1.283c-0.43-0.986,1.293-5.484,1.293-5.484l1.793-2.253c0,0,4.004-4.33,3.413-7.895
			C266.224,171.16,262.13,169.195,258.957,171.755z" />
		</g>
	</g>
	<g id="Chair">
		<g>
			<polygon style="fill:#263238;" points="146.964,330.678 147.324,346.248 148.964,416.678 154.374,416.678 156.004,346.248 
			156.364,330.678 		" />
			<polygon style="opacity:0.4;fill:#FFFFFF;enable-background:new    ;" points="146.964,330.678 147.324,346.248 148.964,416.678 
			154.374,416.678 156.004,346.248 156.364,330.678 		" />
			<polygon style="opacity:0.2;enable-background:new    ;" points="146.964,330.678 147.324,346.678 156.004,346.678 
			156.364,330.678 		" />
			<g>
				<g>
					<polygon style="fill:#263238;"
						points="117.586,416.428 122.584,331.778 130.753,331.778 123.757,416.428 				" />
					<polygon style="opacity:0.5;fill:#FFFFFF;enable-background:new    ;" points="123.771,416.428 117.595,416.428 122.13,339.378 
					122.58,331.678 130.75,331.678 130.12,339.378 				" />
					<polygon style="opacity:0.2;enable-background:new    ;" points="130.75,331.678 130.12,339.678 122.13,339.678 122.58,331.678 
									" />
				</g>
				<g>
					<polygon style="fill:#263238;"
						points="179.577,416.428 172.58,331.778 180.75,331.778 185.747,416.428 				" />
					<polygon style="opacity:0.5;fill:#FFFFFF;enable-background:new    ;" points="179.562,416.428 173.213,339.378 
					172.583,331.678 180.753,331.678 181.203,339.378 185.739,416.428 				" />
					<polygon style="opacity:0.2;enable-background:new    ;" points="172.583,331.678 173.213,339.678 181.203,339.678 
					180.753,331.678 				" />
				</g>
			</g>
			<path style="fill:#C92C6D;" d="M123.206,323.011h56.921c2.761,0,5,2.239,5,5v6.689h-66.921v-6.689
			C118.206,325.25,120.445,323.011,123.206,323.011z" />
			<g>
				<path style="fill:#263238;" d="M117.011,328.856h69.311c1.111,0,2.011,0.901,2.011,2.011v1.822c0,1.111-0.9,2.011-2.011,2.011
				h-69.311c-1.111,0-2.011-0.9-2.011-2.011v-1.822C115,329.757,115.9,328.856,117.011,328.856z" />
				<path style="opacity:0.6;fill:#FFFFFF;enable-background:new    ;" d="M117.011,328.856h69.311c1.111,0,2.011,0.901,2.011,2.011
				v1.822c0,1.111-0.9,2.011-2.011,2.011h-69.311c-1.111,0-2.011-0.9-2.011-2.011v-1.822C115,329.757,115.9,328.856,117.011,328.856
				z" />
			</g>
		</g>
	</g>
	<g id="Character">
		<g>
			<path style="fill:#263238;" d="M179.956,193.89c0,0-4.71-3.659-9.97-3.758c-5.26-0.099-17.524,3.864-16.931,17.41
			c0.594,13.546-0.396,28.282-0.396,28.282l20.473,6.824c0,0,13.262-22.453,14.147-30.018
			C188.165,205.066,179.956,193.89,179.956,193.89z" />
			<path style="fill:#B97964;" d="M224.804,264.011l6.415-1.846c0,0,2.374-5.456,3.165-5.695s7.139-1.52,7.139-1.52l-2.759,10.803
			c0,0-3.061,1.423-3.984,1.027l-8.703,2.635L224.804,264.011z" />
			<g>
				<path style="fill:#C92C6D;" d="M179.708,236.244c6.677,5.217,14.641,26.668,22.699,29.509c5.533,1.951,25.681-3.192,25.681-3.192
				l2.538,6.854c0,0-19.846,8.97-32.811,6.86c-11.497-1.871-25.634-19.805-25.634-19.805L179.708,236.244z" />
				<path style="opacity:0.5;fill:#FFFFFF;enable-background:new    ;" d="M179.708,236.244c6.677,5.217,14.641,26.668,22.699,29.509
				c5.533,1.951,25.681-3.192,25.681-3.192l2.538,6.854c0,0-19.846,8.97-32.811,6.86c-11.497-1.871-25.634-19.805-25.634-19.805
				L179.708,236.244z" />
			</g>
			<polygon style="fill:#C92C6D;" points="194.993,279.249 187.279,263.22 188.933,262.183 196.209,277.398 		" />
			<path style="fill:#B97964;" d="M171.066,274.608l10.198,0.349c0,0,9.978-5.407,11.429-5.539c1.451-0.132,5.538,4.614,5.934,5.802
			c0.396,1.187-10.481,6.893-12.65,6.709c-2.169-0.184-3.084-1.679-3.084-1.679l-11.3,0.683L171.066,274.608z" />
			<polygon style="fill:#B97964;" points="237.025,381.371 230.449,382.954 227.121,373.877 224.099,365.62 231.589,362.425 
			234.469,372.445 		" />
			<path style="fill:#C92C6D;"
				d="M228.852,382.51c-0.158-0.729,8.887-2.305,8.887-2.305s6.822,4.254,12.447,4.225
			c5.625-0.029,3.419,3.881-2.53,5.314c-5.949,1.432-10.49,2.526-14.717,3.544C228.71,394.305,230.485,390.068,228.852,382.51z" />
			<g>
				<path style="fill:#263238;" d="M241.899,381.461c-1.167,0-2.497-0.262-2.888-0.344c-0.03-0.006-0.057-0.018-0.081-0.033h-0.001
				l-0.001,0c-0.025-0.016-0.048-0.038-0.066-0.064c-0.012-0.017-0.021-0.035-0.029-0.054c-0.014-0.036-0.018-0.074-0.014-0.111
				c0.011-0.105,0.26-2.356,1.345-3.148c0.345-0.252,0.735-0.336,1.16-0.246c0.453,0.094,0.71,0.299,0.766,0.608
				c0.085,0.475-0.436,1.097-1.066,1.658c0.734-0.255,1.51-0.421,2.049-0.262c0.286,0.083,0.495,0.247,0.622,0.488
				c0.261,0.496,0.151,0.818,0.013,1.002C243.417,381.339,242.696,381.461,241.899,381.461z M239.789,380.771
				c1.446,0.239,3.196,0.337,3.533-0.109c0.029-0.039,0.118-0.157-0.055-0.485c-0.064-0.122-0.172-0.204-0.33-0.25
				C242.206,379.712,240.733,380.308,239.789,380.771z M241.004,377.909c-0.199,0-0.382,0.062-0.554,0.187
				c-0.628,0.458-0.935,1.604-1.066,2.282c1.199-0.819,2.305-1.818,2.231-2.224c-0.023-0.126-0.254-0.193-0.389-0.221
				C241.15,377.918,241.076,377.909,241.004,377.909z" />
			</g>
			<polygon style="opacity:0.2;enable-background:new    ;" points="234.469,372.445 227.121,373.877 224.099,365.62 
			231.589,362.425 		" />
			<g>
				<polygon style="fill:#263238;"
					points="175.679,290.403 194.505,274.91 224.804,277.185 204.543,290.027 			" />
				<polygon style="opacity:0.8;fill:#FFFFFF;enable-background:new    ;" points="175.679,290.403 194.505,274.91 224.804,277.185 
				204.543,290.027 			" />
			</g>
			<g>
				<path style="fill:#263238;" d="M233.808,367.653l-9.12,3.39c0,0-24.33-60.83-29.33-61.04s-55.91,23.19-68.67,10.21
				c-12.76-12.97,5.69-44.24,5.69-44.24s30.69-4.38,33,2.55c0.45,1.34,0.94,3.97,1.3,6.22c0.35,2.12,0.59,3.9,0.59,3.9
				s0.01,0,0.02-0.01c0.95-0.24,31.76-8.19,43.9,0.01C223.518,296.983,233.808,367.653,233.808,367.653z" />
			</g>
			<polygon style="fill:#B97964;" points="181.351,407.319 174.799,405.641 176.059,396.241 177.23,387.62 185.332,388.346 
			183.229,398.392 		" />
			<path style="fill:#C92C6D;"
				d="M173.031,405.326c0.026-0.745,9.181-0.051,9.181-0.051s5.567,5.8,11.027,7.154
			c5.46,1.354,2.361,4.602-3.758,4.529c-6.119-0.074-10.789-0.13-15.137-0.182C169.995,416.724,172.757,413.053,173.031,405.326z" />
			<g>
				<path style="fill:#263238;" d="M187.034,407.678c-1.277,0-3.327-0.968-3.813-1.206c-0.003-0.001-0.006-0.003-0.009-0.004
				l-0.001,0c0,0,0,0-0.001,0c-0.022-0.012-0.042-0.027-0.058-0.044c-0.023-0.023-0.042-0.053-0.054-0.086c0,0,0,0-0.001-0.001l0,0
				c-0.006-0.017-0.01-0.034-0.012-0.052v0v-0.001c-0.005-0.039,0-0.077,0.013-0.113c0.036-0.096,0.83-2.22,2.078-2.721
				c0.397-0.159,0.795-0.143,1.185,0.046c0.415,0.203,0.615,0.464,0.593,0.778c-0.034,0.481-0.692,0.957-1.441,1.345
				c0.776-0.065,1.568-0.036,2.051,0.249c0.256,0.151,0.419,0.361,0.482,0.626c0.131,0.545-0.055,0.83-0.234,0.974
				C187.628,407.616,187.356,407.678,187.034,407.678z M184.061,406.328c1.343,0.587,3.018,1.111,3.452,0.763
				c0.038-0.031,0.153-0.123,0.066-0.484c-0.032-0.134-0.117-0.239-0.258-0.323C186.664,405.895,185.09,406.111,184.061,406.328z
				 M185.72,403.824c-0.119,0-0.239,0.024-0.361,0.073c-0.722,0.289-1.3,1.324-1.594,1.95c1.363-0.499,2.681-1.196,2.71-1.607
				c0.009-0.128-0.199-0.249-0.323-0.31C186.007,403.859,185.863,403.824,185.72,403.824z" />
			</g>
			<polygon style="opacity:0.2;enable-background:new    ;" points="183.177,398.595 176.013,396.421 177.207,387.71 
			185.321,388.391 		" />
			<polygon style="fill:#C92C6D;" points="220.921,367.67 234.205,363.154 234.772,368.597 224.697,372.158 		" />
			<g>
				<path style="fill:#263238;" d="M148.728,323.334c0,0,2.078,0.049,34.269-1.451c0,0-4.811,40.245-7.435,70.373l9.626,1.641
				c0,0,23-64.513,22.75-74.763s-12-13.25-12-13.25S173.003,319.133,148.728,323.334z" />
				<path style="opacity:0.3;enable-background:new    ;"
					d="M148.728,323.334c0,0,2.078,0.049,34.269-1.451
				c0,0-4.811,40.245-7.435,70.373l9.626,1.641c0,0,23-64.513,22.75-74.763s-12-13.25-12-13.25S173.003,319.133,148.728,323.334z" />
			</g>
			<polygon style="fill:#C92C6D;"
				points="174.154,389.336 187.384,390.841 184.832,396.028 174.122,394.655 		" />
			<path style="opacity:0.3;enable-background:new    ;" d="M167.268,288.643l-17.95,3.74c0,0,9.92-5.48,17.36-7.64
			C167.028,286.863,167.268,288.643,167.268,288.643z" />
			<g>
				<g>
					<polygon style="fill:#263238;"
						points="133.119,271.202 132.38,275.977 165.379,278.521 166.253,272.875 				" />
					<polygon style="opacity:0.2;enable-background:new    ;" points="133.119,271.202 132.38,275.977 165.379,278.521 
					166.253,272.875 				" />
				</g>

				<rect x="142.316" y="270.782" transform="matrix(0.9948 0.1023 -0.1023 0.9948 28.8686 -13.1961)"
					style="fill:#263238;" width="1.639" height="8.348" />

				<rect x="151.119" y="272.634" transform="matrix(0.9979 0.0641 -0.0641 0.9979 17.9789 -9.3568)"
					style="fill:#FFFFFF;" width="7.245" height="5.494" />

				<rect x="162.578" y="271.677" transform="matrix(0.9947 0.1023 -0.1023 0.9947 29.0877 -15.2733)"
					style="fill:#263238;" width="1.639" height="8.348" />
			</g>
			<g>
				<path style="fill:#C92C6D;" d="M134.119,271.202c0,0-3.367-28.161,7.345-46.204c0,0,22.934-9.105,38.244,11.245
				c0,0,2.291,20.597-1.504,24.602c-3.795,4.006-11.476,15.428-11.476,15.428L134.119,271.202z" />
				<path style="opacity:0.6;fill:#FFFFFF;enable-background:new    ;"
					d="M134.119,271.202c0,0-3.367-28.161,7.345-46.204
				c0,0,22.934-9.105,38.244,11.245c0,0,2.291,20.597-1.504,24.602c-3.795,4.006-11.476,15.428-11.476,15.428L134.119,271.202z" />
			</g>
			<g>
				<path style="fill:#C92C6D;" d="M141.464,224.999c10.795-2.695,9.089,37.628,10.9,42.573c1.811,4.945,26.933,5.407,26.933,5.407
				l-0.524,8.637c0,0-28.805,2.328-36.712-4.217C134.153,270.852,131.345,227.524,141.464,224.999z" />
				<path style="opacity:0.5;fill:#FFFFFF;enable-background:new    ;" d="M141.464,224.999c10.795-2.695,9.089,37.628,10.9,42.573
				c1.811,4.945,26.933,5.407,26.933,5.407l-0.524,8.637c0,0-28.805,2.328-36.712-4.217
				C134.153,270.852,131.345,227.524,141.464,224.999z" />
			</g>
			<path style="fill:#263238;" d="M172.182,191.022c0,0,3.242-3.363,9.513,0c6.272,3.363,16.359,11.758,12.404,24.67
			c-3.956,12.912-8.892,26.363-6.82,32.693s-4.66,6.566-4.66,6.566s3.32-1.03,2.257-5.281c-1.063-4.251,0-19.68,0-19.68
			s-3.831,11.005-7.59,9c-3.759-2.005-6.725-9.89-13.945-12.43C158.023,224.689,172.182,191.022,172.182,191.022z" />
			<path
				style="fill:none;stroke:#263238;stroke-width:0.5;stroke-linecap:round;stroke-linejoin:round;stroke-miterlimit:10;"
				d="
			M152.659,223.127c0.297,2.313,14.609,33.293,14.609,33.293s3.454-19.683,1.312-24.321
			C166.439,227.46,152.659,223.127,152.659,223.127z" />
			<g>
				<path style="fill:#C92C6D;" d="M152.659,223.127c0,0,1.701-1.347,4.461-2.435c2.759-1.088,9.802,4.75,10.77,7.077
				c0.968,2.327-6.002,4.791-6.002,4.791L152.659,223.127z" />
				<path style="opacity:0.3;fill:#FFFFFF;enable-background:new    ;" d="M152.659,223.127c0,0,1.701-1.347,4.461-2.435
				c2.759-1.088,9.802,4.75,10.77,7.077c0.968,2.327-6.002,4.791-6.002,4.791L152.659,223.127z" />
			</g>
			<path style="fill:#B97964;" d="M166.409,226.539c-0.135,1.969,0.927,2.54,0.927,2.54c0.048,3.648-3.199,4.476-4.755,4.162
			c-6.112-1.238-7.333-8.859-7.333-8.859c4.667-1.343,6.161-6.196,6.639-9.12c0.225-1.365,0.227-2.311,0.227-2.311l7.871,6.109
			c-0.975,1.32-1.687,2.48-2.235,3.489C166.842,224.275,166.479,225.575,166.409,226.539z" />
			<path style="opacity:0.2;enable-background:new    ;" d="M169.986,219.06c-0.975,1.32-1.687,2.48-2.235,3.489
			c-0.908,1.725-1.272,3.025-1.342,3.99c-4.719-0.574-4.493-11.209-4.493-11.209l-0.028-0.067c0.225-1.365,0.227-2.311,0.227-2.311
			L169.986,219.06z" />
			<g>
				<path style="fill:#C92C6D;" d="M157.12,220.692c0,0,4.05,5.767,7.133,7.077s3.637,0,3.637,0l1.582,3.802
				c0,0,0.011,5.912-6.855,5.934c-5.612,0.018-9.958-14.378-9.958-14.378L157.12,220.692z" />
				<path style="opacity:0.5;fill:#FFFFFF;enable-background:new    ;" d="M157.12,220.692c0,0,4.05,5.767,7.133,7.077
				s3.637,0,3.637,0l1.582,3.802c0,0,0.011,5.912-6.855,5.934c-5.612,0.018-9.958-14.378-9.958-14.378L157.12,220.692z" />
			</g>
			<g>
				<path style="fill:#B97964;" d="M179.298,198.117c7.762,3.522,8.375,8.812,5.314,17.069c-3.825,10.319-9.265,16.416-18.002,9.877
				C154.745,216.182,166.407,192.267,179.298,198.117z" />
				<path style="fill:#A24E3F;"
					d="M179.792,212.475c0,0,0.156,2.516,0.798,4.244c0,0-1.143,0.754-2.445-0.051L179.792,212.475z" />
				<g>
					<path style="fill:#263238;" d="M175.328,209.685c-0.274,0.645-0.845,1.018-1.275,0.835c-0.43-0.183-0.555-0.854-0.281-1.498
					c0.274-0.644,0.845-1.019,1.275-0.836C175.477,208.37,175.603,209.04,175.328,209.685z" />
					<path style="fill:#263238;"
						d="M174.855,208.141l1.636,0.047C176.49,208.189,175.29,209.071,174.855,208.141z" />
				</g>
				<g>
					<path style="fill:#263238;" d="M183.396,212.962c-0.275,0.644-0.845,1.019-1.275,0.836c-0.43-0.183-0.555-0.854-0.281-1.498
					c0.274-0.644,0.845-1.019,1.275-0.835C183.545,211.647,183.671,212.318,183.396,212.962z" />
					<path style="fill:#263238;"
						d="M182.923,211.419l1.636,0.047C184.559,211.466,183.359,212.348,182.923,211.419z" />
				</g>

				<path
					style="fill:none;stroke:#263238;stroke-width:0.7247;stroke-linecap:round;stroke-linejoin:round;stroke-miterlimit:10;"
					d="
				M177.682,204.289c0,0-2.053-1.273-3.899-0.354" />

				<path
					style="fill:none;stroke:#263238;stroke-width:0.7247;stroke-linecap:round;stroke-linejoin:round;stroke-miterlimit:10;"
					d="
				M183.474,206.521c0,0,1.602,0.114,2.804,2.042" />
				<path style="fill:#263238;"
					d="M164.878,207.35c0,0,6.523-4.731,8.208-9.904c0,0,18.234,0.696,11.909,16.654
				c0,0,7.794-13.182-5.41-19.546c-13.183-6.354-22.005,13.184-17.753,22.128C161.831,216.682,160.823,210.32,164.878,207.35z" />
				<path style="fill:#B97964;" d="M165.403,209.564c0.515-1.273,0.185-3.974-2.254-4.775c-2.525-0.829-5.912,3.589-0.467,7.491
				C163.463,212.841,164.328,212.221,165.403,209.564z" />

				<path
					style="fill:none;stroke:#263238;stroke-width:0.7247;stroke-linecap:round;stroke-linejoin:round;stroke-miterlimit:10;"
					d="
				M172.182,215.692c0,0-0.018,3.46,3.668,4.03" />
			</g>
			<path
				style="fill:none;stroke:#263238;stroke-width:0.5;stroke-linecap:round;stroke-linejoin:round;stroke-miterlimit:10;"
				d="
			M185.89,226.559c0,0,0.962,15.288-6.593,15.001c-2.605-0.099-4.473-6.812-6.561-8.258" />
			<path
				style="fill:none;stroke:#263238;stroke-width:0.5;stroke-linecap:round;stroke-linejoin:round;stroke-miterlimit:10;"
				d="
			M193.901,206.945c1.681,4.451-2.032,22.117-4.549,29.299c-2.518,7.182-1.638,14.415-2.006,17.877
			c-0.368,3.462-3.804,3.857-3.804,3.857" />
			<path style="fill:#C92C6D;"
				d="M167.268,256.42c0,0,1.415,2.745,1.315,4.624C168.484,262.923,163.975,262.576,167.268,256.42z" />
			<path style="opacity:0.6;fill:#FFFFFF;enable-background:new    ;" d="M228.852,382.51c-0.158-0.729,8.887-2.305,8.887-2.305
			s6.822,4.254,12.447,4.225c5.625-0.029,3.419,3.881-2.53,5.314c-5.949,1.432-10.49,2.526-14.717,3.544
			C228.71,394.305,230.485,390.068,228.852,382.51z" />
			<path style="opacity:0.6;fill:#FFFFFF;enable-background:new    ;" d="M173.031,405.326c0.026-0.745,9.181-0.051,9.181-0.051
			s5.567,5.8,11.027,7.154c5.46,1.354,2.361,4.602-3.758,4.529c-6.119-0.074-10.789-0.13-15.137-0.182
			C169.995,416.724,172.757,413.053,173.031,405.326z" />
			<g>
				<path style="fill:#F5F5F5;" d="M302.43,229.2l-7.52,38.84c0,0-22.09,0.1-30.03,2.12c0,0-17.32-2.98-26.48-2.98l9.7-37.98
				c0.39-0.13,18.46,0.26,25.19,2.9C273.29,232.1,291.48,228.94,302.43,229.2z" />
				<path style="opacity:0.1;enable-background:new    ;" d="M273.29,232.1l-8.41,38.06c0,0-17.32-2.98-26.48-2.98l9.7-37.98
				C248.49,229.07,266.56,229.46,273.29,232.1z" />
				<g style="opacity:0.2;enable-background:new    ;">
					<path d="M269.461,236.494c-0.04,0-0.08-0.01-0.118-0.029c-5.225-2.782-19.205-2.911-19.346-2.912
					c-0.138-0.001-0.249-0.113-0.248-0.252c0.001-0.138,0.113-0.248,0.25-0.248c0.001,0,0.001,0,0.002,0
					c0.579,0.004,14.244,0.131,19.577,2.971c0.122,0.064,0.168,0.217,0.103,0.338C269.637,236.446,269.551,236.494,269.461,236.494z
					" />
				</g>
				<g style="opacity:0.2;enable-background:new    ;">
					<path d="M276.549,236.494c-0.118,0-0.223-0.084-0.246-0.205c-0.025-0.136,0.065-0.266,0.201-0.291
					c0.642-0.117,15.781-2.877,21.285-2.184c0.137,0.018,0.234,0.143,0.217,0.279c-0.017,0.137-0.145,0.226-0.279,0.217
					c-5.429-0.683-20.977,2.152-21.133,2.181C276.579,236.493,276.564,236.494,276.549,236.494z" />
				</g>
				<g style="opacity:0.2;enable-background:new    ;">
					<path
						d="M268.404,241.077c-0.04,0-0.08-0.01-0.118-0.029c-5.225-2.782-19.205-2.911-19.346-2.912
					c-0.138-0.001-0.249-0.113-0.248-0.252c0.001-0.138,0.113-0.248,0.25-0.248c0.001,0,0.001,0,0.002,0
					c0.579,0.004,14.244,0.131,19.577,2.971c0.122,0.064,0.168,0.217,0.103,0.338C268.58,241.029,268.494,241.077,268.404,241.077z" />
				</g>
				<g style="opacity:0.2;enable-background:new    ;">
					<path d="M275.492,241.077c-0.118,0-0.223-0.084-0.246-0.205c-0.025-0.136,0.065-0.266,0.201-0.291
					c0.642-0.117,15.787-2.875,21.285-2.184c0.137,0.017,0.234,0.142,0.217,0.279c-0.018,0.137-0.147,0.23-0.279,0.217
					c-5.427-0.688-20.977,2.151-21.133,2.18C275.522,241.076,275.507,241.077,275.492,241.077z" />
				</g>
				<g style="opacity:0.2;enable-background:new    ;">
					<path
						d="M267.347,245.66c-0.04,0-0.08-0.01-0.118-0.029c-5.225-2.782-19.205-2.911-19.346-2.912
					c-0.138-0.001-0.249-0.113-0.248-0.252c0.001-0.138,0.113-0.248,0.25-0.248c0.001,0,0.001,0,0.002,0
					c0.579,0.004,14.244,0.131,19.577,2.971c0.122,0.064,0.168,0.217,0.103,0.338C267.523,245.612,267.436,245.66,267.347,245.66z" />
				</g>
				<g style="opacity:0.2;enable-background:new    ;">
					<path d="M274.435,245.66c-0.118,0-0.223-0.084-0.246-0.205c-0.025-0.136,0.065-0.266,0.201-0.291
					c0.642-0.117,15.785-2.875,21.285-2.184c0.137,0.018,0.234,0.143,0.217,0.279c-0.018,0.137-0.144,0.23-0.279,0.217
					c-5.426-0.688-20.977,2.151-21.133,2.18C274.465,245.659,274.45,245.66,274.435,245.66z" />
				</g>
				<g style="opacity:0.2;enable-background:new    ;">
					<path
						d="M266.29,250.243c-0.04,0-0.08-0.01-0.118-0.029c-5.225-2.782-19.205-2.911-19.346-2.912
					c-0.138-0.001-0.249-0.113-0.248-0.252c0.001-0.138,0.113-0.248,0.25-0.248c0.001,0,0.001,0,0.002,0
					c0.579,0.004,14.244,0.131,19.577,2.971c0.122,0.064,0.168,0.217,0.103,0.338C266.466,250.195,266.379,250.243,266.29,250.243z" />
				</g>
				<g style="opacity:0.2;enable-background:new    ;">
					<path d="M273.377,250.243c-0.118,0-0.223-0.084-0.246-0.205c-0.025-0.136,0.065-0.266,0.201-0.291
					c0.642-0.117,15.785-2.874,21.285-2.184c0.137,0.018,0.234,0.143,0.217,0.279c-0.018,0.137-0.146,0.229-0.279,0.217
					c-5.424-0.68-20.977,2.151-21.133,2.18C273.408,250.242,273.393,250.243,273.377,250.243z" />
				</g>
				<g style="opacity:0.2;enable-background:new    ;">
					<path
						d="M265.233,254.827c-0.04,0-0.08-0.01-0.118-0.029c-5.225-2.783-19.205-2.911-19.346-2.912
					c-0.138-0.001-0.249-0.113-0.248-0.252c0.001-0.138,0.113-0.248,0.25-0.248c0.001,0,0.001,0,0.001,0
					c0.579,0.004,14.244,0.13,19.578,2.971c0.122,0.066,0.168,0.217,0.103,0.338C265.409,254.779,265.323,254.827,265.233,254.827z" />
				</g>
				<g style="opacity:0.2;enable-background:new    ;">
					<path d="M272.321,254.827c-0.118,0-0.223-0.084-0.246-0.205c-0.025-0.136,0.065-0.266,0.201-0.291
					c0.642-0.117,15.782-2.876,21.285-2.185c0.137,0.018,0.234,0.143,0.217,0.279c-0.017,0.137-0.142,0.228-0.279,0.217
					c-5.427-0.68-20.976,2.152-21.132,2.181C272.351,254.826,272.336,254.827,272.321,254.827z" />
				</g>
				<g style="opacity:0.2;enable-background:new    ;">
					<path
						d="M264.176,259.41c-0.04,0-0.08-0.01-0.118-0.029c-5.226-2.782-19.206-2.911-19.346-2.912
					c-0.138-0.001-0.249-0.113-0.248-0.252c0.001-0.138,0.113-0.248,0.25-0.248c0,0,0.001,0,0.002,0
					c0.579,0.004,14.244,0.131,19.578,2.971c0.122,0.064,0.168,0.217,0.103,0.338C264.352,259.362,264.266,259.41,264.176,259.41z" />
				</g>
				<g style="opacity:0.2;enable-background:new    ;">
					<path d="M271.264,259.41c-0.118,0-0.223-0.084-0.246-0.205c-0.025-0.136,0.065-0.266,0.201-0.291
					c0.642-0.118,15.783-2.876,21.285-2.185c0.137,0.018,0.234,0.143,0.217,0.279c-0.018,0.137-0.146,0.227-0.279,0.217
					c-5.427-0.681-20.976,2.152-21.132,2.181C271.294,259.409,271.279,259.41,271.264,259.41z" />
				</g>
				<g style="opacity:0.2;enable-background:new    ;">
					<path d="M263.119,263.993c-0.04,0-0.08-0.01-0.118-0.029c-5.226-2.782-19.206-2.911-19.346-2.912
					c-0.138-0.001-0.249-0.113-0.248-0.252c0.001-0.138,0.113-0.248,0.25-0.248c0.001,0,0.001,0,0.002,0
					c0.579,0.004,14.244,0.131,19.578,2.971c0.122,0.064,0.168,0.217,0.103,0.338C263.295,263.945,263.208,263.993,263.119,263.993z
					" />
				</g>
				<g style="opacity:0.2;enable-background:new    ;">
					<path d="M270.207,263.993c-0.118,0-0.223-0.084-0.246-0.205c-0.025-0.136,0.065-0.266,0.201-0.291
					c0.642-0.117,15.785-2.875,21.285-2.184c0.137,0.018,0.234,0.143,0.217,0.279c-0.018,0.137-0.148,0.23-0.279,0.217
					c-5.426-0.691-20.976,2.15-21.132,2.18C270.237,263.992,270.222,263.993,270.207,263.993z" />
				</g>
			</g>
		</g>
	</g>
</svg>