<?xml version="1.0" encoding="utf-8"?>
<!-- Generator: Adobe Illustrator 27.5.0, SVG Export Plug-In . SVG Version: 6.00 Build 0)  -->
<svg version="1.1" xmlns="http://www.w3.org/2000/svg" xmlns:xlink="http://www.w3.org/1999/xlink" x="0px" y="0px"
	viewBox="0 0 500 500" style="enable-background:new 0 0 500 500;" xml:space="preserve">
	<g id="Background_Simple">
		<g>
			<path style="opacity:0.7;fill:#FFFFFF;" d="M67.931,167.086c0,0-27.877,71.988,11.297,144.503
			c39.174,72.516,119.879,110.802,184.469,143.548c64.59,32.746,131.661,16.799,163.534-36.838
			c31.873-53.637-11.845-91.928-11.897-168.418c-0.051-76.49,11.447-96.742-29.963-161.364
			c-41.41-64.623-143.059-78.925-219.9-30.996C88.631,105.45,67.931,167.086,67.931,167.086z" />
		</g>
		<g>
			<path style="fill:#C92C6D;" d="M130.957,435.976c23.6,24.915,81.54,15.791,106.636,0
			c81.459-51.255,224.245-136.568,230.708-260.168c2.747-52.536-43.577-80.121-62.933-88.214
			c-46.482-19.435-97.477-25.269-147.808-27.52c-52.571-2.351-108.963-0.52-156.311,25.129
			c-17.934,9.715-34.853,22.175-46.435,39.184c-11.765,17.278-18.534,37.854-20.33,58.623c-2.896,33.501,6.117,67.092,19.746,97.832
			s31.805,59.203,48.487,88.399C113.601,388.289,111.075,414.986,130.957,435.976z" />
			<path style="opacity:0.7;fill:#FFFFFF;" d="M130.957,435.976c23.6,24.915,81.54,15.791,106.636,0
			c81.459-51.255,224.245-136.568,230.708-260.168c2.747-52.536-43.577-80.121-62.933-88.214
			c-46.482-19.435-97.477-25.269-147.808-27.52c-52.571-2.351-108.963-0.52-156.311,25.129
			c-17.934,9.715-34.853,22.175-46.435,39.184c-11.765,17.278-18.534,37.854-20.33,58.623c-2.896,33.501,6.117,67.092,19.746,97.832
			s31.805,59.203,48.487,88.399C113.601,388.289,111.075,414.986,130.957,435.976z" />
		</g>
	</g>
	<g id="Clouds">
		<path style="fill:none;stroke:#263238;stroke-linecap:round;stroke-linejoin:round;stroke-miterlimit:10;" d="M446.554,238.598
		c0,0-8.199-12.656-30.975-9.138c-22.777,3.518-25.941,29.052-25.941,29.052s-18.198-6.452-25.319,4.974
		c-7.121,11.426-8.603,16.246-8.603,16.246s-83.17-1.089-133.811,10.1c0,0,99.889-3.428,133.811,8.628c0,0,9.859-4.093,18.33-2.744
		c8.471,1.349,10.054,22.643,10.054,22.643s1.582-4.691,10.286,4.019c8.703,8.71,4.747,19.769,4.747,19.769l15.824,13.182
		c0,0-106.407-43.815-204.72-28.094c0,0-21.109-31.943-45.865-23.935c0,0,1.169-20.736-21.684-30.892
		c-22.852-10.155-41.755,5.091-41.755,5.091s-12.543-44.687-44.688-28.384" />
		<path style="fill:none;stroke:#263238;stroke-linecap:round;stroke-linejoin:round;stroke-miterlimit:10;" d="M67.615,401.493
		c0,0,82.346-47.976,181.217-47.976c98.871,0,177.892,54.284,177.892,54.284" />
		<path style="fill:none;stroke:#263238;stroke-linecap:round;stroke-linejoin:round;stroke-miterlimit:10;" d="M426.724,192.708
		c-23.364-13.887-36.296-13.887-36.296-13.887s-0.527-12.072-12.132-16.54c-11.604-4.468-20.044,6.237-20.044,6.237
		s-7.385-4.974-13.187-3.092c-5.802,1.882-10.019,7.621-10.019,7.621h-34.852l42.761,5.774c0,0,4.388,10.113,12.48,12.223
		c8.091,2.11,12.839,0,12.839,0s4.238,2.426,13.187,3.414c13.714,1.515,21.898-6.137,21.898-6.137" />
		<path style="fill:none;stroke:#263238;stroke-linecap:round;stroke-linejoin:round;stroke-miterlimit:10;" d="M58.315,173.046
		c2.971-14.178,20.905-14.396,26.18-4.529c0,0,12.132-6.607,18.462,2.157l42.82-2.157c0,0-72.886,9.696-98.732,16.639" />
	</g>
	<g id="Plane">
		<g>
			<path style="fill:none;stroke:#263238;stroke-linecap:round;stroke-linejoin:round;stroke-miterlimit:10;" d="M300.977,88.812
			c-1.47-2.06,5.37-0.93,5.37-0.93s1.32-0.99,5.54-0.51c3.37,0.38,16.16,6.57,16.16,6.57l3.962-1.07" />
			<path style="fill:none;stroke:#263238;stroke-linecap:round;stroke-linejoin:round;stroke-miterlimit:10;" d="M358.832,112.757
			c-26.894-7.202-53.645-21.316-53.645-21.316" />
			<path style="fill:none;stroke:#263238;stroke-linecap:round;stroke-linejoin:round;stroke-miterlimit:10;" d="M338.59,90.591
			l14.797-3.489c1.06-0.28,2.18-0.27,3.23,0.04l5.64,1.67l-18.03,8.71l-0.83,0.4l-4.77,2.3l18.36,7.96l6.196-4.63l2.592,1.2
			l-1.01,2.685" />
			<path style="fill:none;stroke:#263238;stroke-linecap:round;stroke-linejoin:round;stroke-miterlimit:10;" d="M334.304,92.83
			c2.703-0.659,2.836-2.601,2.836-2.601s1.172,0.78,2.727,1.851c2.425,1.678,5.788,4.063,7.025,5.237
			c0.446,0.433,0.612,0.7,0.35,0.713c-0.181,0.009-0.567-0.059-1.104-0.183c-2.317-0.53-7.435-2.19-10.975-3.623
			c-2.072-0.824-3.594-1.577-3.713-1.993c-0.343-1.281,2.39-3.333,3.373-3.09" />
			<path style="fill:none;stroke:#263238;stroke-linecap:round;stroke-linejoin:round;stroke-miterlimit:10;" d="M311.395,99.929
			c-0.843-0.171-3.102,1.679-2.764,2.763c0.113,0.344,1.441,0.935,3.237,1.562c0.01-0.002,0.012,0.008,0.022,0.006
			c2.571,0.914,6.082,1.928,8.324,2.441c0.44,0.102,0.825,0.185,1.155,0.249c0.458,0.088,0.793,0.131,0.942,0.11
			c0.221-0.016,0.073-0.24-0.317-0.588c-0.152-0.142-0.348-0.295-0.567-0.464c-1.348-1.026-3.791-2.6-5.625-3.75
			c-0.436-0.277-0.846-0.528-1.187-0.743c-0.728-0.451-1.207-0.739-1.207-0.739" />
			<path style="fill:none;stroke:#263238;stroke-linecap:round;stroke-linejoin:round;stroke-miterlimit:10;" d="M326.689,95.896
			c-0.494,1.088,9.065,5.755,10.516,5.4" />
			<path style="fill:none;stroke:#263238;stroke-linecap:round;stroke-linejoin:round;stroke-miterlimit:10;" d="M329.357,103.792
			l-10.51,3.42l-1.33,0.43l-11.3,3.68c0,0-2.97-1.58-3.26-2.47c-0.15-0.44,3.33-2.9,6.91-5.3" />
			<path style="fill:none;stroke:#263238;stroke-linecap:round;stroke-linejoin:round;stroke-miterlimit:10;" d="M317.487,98.602
			c0,0-1.616,0.573-4.076,2.173c0,0-0.469,1.88-2.118,1.88" />
			<path style="fill:none;stroke:#263238;stroke-linecap:round;stroke-linejoin:round;stroke-miterlimit:10;" d="M355.485,108.771
			c0,0,9.688-0.347,10.064-0.347c0.376,0,4.233,1.436,4.233,1.436l-9.824,2.481" />
			<path style="fill:none;stroke:#263238;stroke-linecap:round;stroke-linejoin:round;stroke-miterlimit:10;" d="M350.312,110.853
			c0,0-4.609,2.363-4.327,2.774c0.282,0.411,3.292,1.369,3.292,1.369l6.866-1.78" />
			<g>
				<g>
					<path style="fill:none;stroke:#263238;stroke-linecap:round;stroke-linejoin:round;" d="M308.722,88.149
					c0,0,0.165,0.023,0.488,0.085" />
					<path
						style="fill:none;stroke:#263238;stroke-linecap:round;stroke-linejoin:round;stroke-dasharray:0.9135,1.827;"
						d="
					M310.987,88.646c2.333,0.615,6.402,1.935,11.891,4.653" />
					<path style="fill:none;stroke:#263238;stroke-linecap:round;stroke-linejoin:round;" d="M323.702,93.712
					c0.148,0.075,0.298,0.152,0.449,0.229" />
				</g>
			</g>
		</g>
	</g>
	<g id="Character">
		<g>
			<path style="fill:#757575;stroke:#263238;stroke-linecap:round;stroke-linejoin:round;stroke-miterlimit:10;"
				d="M169.133,199.155
			c0,0,18.065-18.403,23.087-61.917h3.359c0,0-5.111,48.378-22.858,66.873" />
			<g>
				<g>
					<defs>
						<path id="XMLID_452_" d="M197.46,117.3c-0.34,13.44-1.5,30.98-5.1,38.5c-7.14,14.92-27.98,23.21-28.99,12.17
						c-0.03-0.35-0.05-0.7-0.06-1.06c-0.16-11.15,11.78-29.29,15.19-46.5c3.51-17.75,8.04-21.42,19.01-20.5
						C197.51,99.91,197.7,107.52,197.46,117.3z" />
					</defs>
					<use xlink:href="#XMLID_452_" style="overflow:visible;fill:#FFFFFF;" />
					<clipPath id="XMLID_00000072250280126058658190000015185967975317089946_">
						<use xlink:href="#XMLID_452_" style="overflow:visible;" />
					</clipPath>
					<path
						style="opacity:0.4;clip-path:url(#XMLID_00000072250280126058658190000015185967975317089946_);fill:#C92C6D;"
						d="
					M197.46,117.3c-0.34,13.44-1.5,30.98-5.1,38.5c-7.14,14.92-27.98,23.21-28.99,12.17c-0.03-0.35-0.05-0.7-0.06-1.06
					c18.38-9.12,25.16-46.68,25.16-46.68L197.46,117.3z" />

					<use xlink:href="#XMLID_452_"
						style="overflow:visible;fill:none;stroke:#263238;stroke-linecap:round;stroke-linejoin:round;stroke-miterlimit:10;" />
				</g>
				<path style="fill:none;stroke:#263238;stroke-linecap:round;stroke-linejoin:round;stroke-miterlimit:10;"
					d="M191.505,134.342
				c0,0-5.535,13.549-5.535,17.937s-5.523,10.002-5.523,10.002" />
			</g>
			<g>
				<defs>
					<path id="XMLID_453_" d="M197.509,99.907c0,0,37.416-1.367,44.233,4.519c19.054,16.452-8.691,35.289-4.915,78.236l-47.786-7.606
					c0,0,11.859-18.125,1.592-42.953C184.396,117.024,187.887,102.836,197.509,99.907z" />
				</defs>
				<use xlink:href="#XMLID_453_" style="overflow:visible;fill:#C92C6D;" />
				<clipPath id="XMLID_00000134958405410985362030000015167711310965996176_">
					<use xlink:href="#XMLID_453_" style="overflow:visible;" />
				</clipPath>
				<path style="opacity:0.15;clip-path:url(#XMLID_00000134958405410985362030000015167711310965996176_);" d="M236.83,182.66
				l-47.79-7.6c0,0,6.69-10.23,5.67-25.85c2.26,0.72,6.4,1.39,12.36-0.2c4.624-1.228,9.284-2.874,12.855-4.263
				c1.504-0.585,2.732,1.307,1.593,2.449c-4.018,4.029-9.844,9.1-14.447,10.154c-7.85,1.78,4.96,5.74,8.44,3.63
				c3.49-2.11,13.81,4.45,13.81,4.45s-2.1-5.31-2.36-5.54c-0.25-0.24,4.78,0.03,4.78,0.03s9.78-16.58,7.09-18.7
				c-2.69-2.13-6.21-12.42-7.09-16.11c-0.87-3.69-22.27-8.18-27.64-15.2c-5.37-7.03,0,7.29,0,7.29s-11.12,1.74-16.54-1.62
				c0.47-7.86,4.06-13.87,9.95-15.67c0,0,37.41-1.37,44.23,4.52C260.8,120.88,233.05,139.71,236.83,182.66z" />

				<use xlink:href="#XMLID_453_"
					style="overflow:visible;fill:none;stroke:#263238;stroke-linecap:round;stroke-linejoin:round;stroke-miterlimit:10;" />
			</g>
			<path style="fill:#FFFFFF;stroke:#263238;stroke-linecap:round;stroke-linejoin:round;stroke-miterlimit:10;"
				d="M242.404,105.901
			c11.473-4.909,15.193,20.827,15.728,26.269c0.535,5.442,8.176,15.29,10.014,24.544c1.838,9.254,7.075,40.805,13.782,46.071
			c6.706,5.266-19.947,7.447-19.172,2.658c2.621-16.22-16.793-38.371-17.481-44.406c-0.688-6.035-0.935-15.329-0.935-15.329
			S228.584,111.814,242.404,105.901z" />
			<g>
				<path
					style="fill:#C92C6D;stroke:#263238;stroke-linecap:round;stroke-linejoin:round;stroke-miterlimit:10;"
					d="
				M224.847,367.587c0,0,0.753,2.671,0,6.195c-0.753,3.524,1.848,9.473-1.211,9.763c-3.059,0.29-10.749,1.405-11.425-2.417
				c-0.676-3.822,1.334-9.764,1.334-9.764s-2.182-7.057,1.044-8.72C217.815,360.981,225.275,362.566,224.847,367.587z" />
				<path style="fill:#263238;" d="M244.63,215.8c0,1.12-0.02,2.24-0.04,3.38c-0.82,34.08-13.33,74.88-15.3,83.17
				c-2.26,9.53,0.73,19.52-0.83,31.17c-1.5,11.29-5.89,34.07-5.89,34.07s-6.91,2.51-7.41-2.48c0,0,2.14-7.8-1.19-30.54
				c-1.63-11.2,2.89-24.09,1.39-31.3c-1.27-6.07-2.58-41.29-6.65-57.64c-0.29,0.71-0.57,1.44-0.81,2.17
				c-6.28,18.17-0.04,41.79-3.55,66.58c0,0,1.97,27.5,0,35.65c-3.84,15.91-0.23,54.13-0.23,54.13l-16.58,1.37
				c0,0-9.2-50.62-9.86-63.99c-0.75-15.21,4-25.32,2.77-38.63c-1.46-15.69-8.27-52.95-8.98-62.4
				c-3.33-44.05,19.39-69.04,19.39-69.04s11.94-4.13,23.24-2.62c13.73,1.83,22.03,6.89,22.03,6.89
				C241.05,181.03,246.13,200.64,244.63,215.8z" />
				<path style="fill:none;stroke:#263238;stroke-linecap:round;stroke-linejoin:round;stroke-miterlimit:10;"
					d="M214.926,379.639
				c0,0,5.996,2.459,10.156,0" />
				<path style="fill:none;stroke:#263238;stroke-linecap:round;stroke-linejoin:round;stroke-miterlimit:10;"
					d="M213.545,371.364
				c0,0,4.897,3.486,9.418,0.884" />
				<path style="opacity:0.3;" d="M229.29,302.35c-2.26,9.53,0.73,19.52-0.83,31.17c-1.5,11.29-5.89,34.07-5.89,34.07
				s-6.91,2.51-7.41-2.48c0,0,2.14-7.8-1.19-30.54c-1.63-11.2,2.89-24.09,1.39-31.3c-1.27-6.07-2.58-41.29-6.65-57.64
				c-0.29,0.71-0.57,1.44-0.81,2.17v-10.87c0,0,2.71-4.4,2.68-6.15c-0.02-1.76,1.13-4.89,1.13-4.89s20.75,6.77,32.88-6.71
				C243.77,253.26,231.26,294.06,229.29,302.35z" />
				<g>
					<path
						style="fill:#C92C6D;stroke:#263238;stroke-linecap:round;stroke-linejoin:round;stroke-miterlimit:10;"
						d="
					M184.256,417.611c-4.102-10.929-5.509-25.648-0.989-33.394c0,0-3.113-2.404-0.286-7.453c1.674-2.99,15.681-6.184,19.135-2.067
					c3.453,4.116-0.715,7.119-0.715,7.119s4.692-0.687,4.692,19.965C206.093,417.314,184.256,417.611,184.256,417.611z" />
					<path
						style="fill:#757575;stroke:#263238;stroke-linecap:round;stroke-linejoin:round;stroke-miterlimit:10;"
						d="
					M186.57,391.603c7.099-10.421,17.592-6.633,19.192,2.798c1.6,9.431,2.229,16.553,3.321,27.996
					c1.091,11.443-2.856,13.116-12.328,14.336C187.283,437.954,177.539,404.861,186.57,391.603z" />
					<path
						style="fill:none;stroke:#263238;stroke-linecap:round;stroke-linejoin:round;stroke-miterlimit:10;"
						d="M186.984,398.716
					c0,0,11.246-2.61,17.113-3.095" />
					<path
						style="fill:none;stroke:#263238;stroke-linecap:round;stroke-linejoin:round;stroke-miterlimit:10;"
						d="M186.042,407.737
					c0,0,13.883-2.528,18.055-2.949" />
					<path
						style="fill:none;stroke:#263238;stroke-linecap:round;stroke-linejoin:round;stroke-miterlimit:10;"
						d="M186.984,415.481
					c0,0,17.308-2.377,19.109-3.806" />
					<path
						style="fill:none;stroke:#263238;stroke-linecap:round;stroke-linejoin:round;stroke-miterlimit:10;"
						d="M188.115,423.581
					c0,0,16.764-2.59,19.213-4.026" />
					<path
						style="fill:none;stroke:#263238;stroke-linecap:round;stroke-linejoin:round;stroke-miterlimit:10;"
						d="M191.505,428.855
					c0,0,12.62-2.072,15.823-3.391" />
					<path
						style="fill:none;stroke:#263238;stroke-linecap:round;stroke-linejoin:round;stroke-miterlimit:10;"
						d="M195.07,433.564
					c0,0,10.939-2.538,12.258-2.825" />
					<path
						style="fill:none;stroke:#263238;stroke-linecap:round;stroke-linejoin:round;stroke-miterlimit:10;"
						d="M186.042,381.128
					c0,0,8.79-5.873,14.567-1.489" />
					<path
						style="fill:none;stroke:#263238;stroke-linecap:round;stroke-linejoin:round;stroke-miterlimit:10;"
						d="M182.087,397.075
					c0,0,1.406-11.8,10.36-13.53c8.954-1.73,9.907,2.642,9.907,2.642" />
				</g>
				<path style="fill:none;stroke:#FFFFFF;stroke-linecap:round;stroke-linejoin:round;stroke-miterlimit:10;"
					d="M210.583,233.395
				c0,0,3.004,8.186,14.485,15.72" />
				<path style="fill:none;stroke:#FFFFFF;stroke-linecap:round;stroke-linejoin:round;stroke-miterlimit:10;"
					d="M225.182,302.078
				c0,0-6.548,2.231-6.555,9.972" />
				<path style="fill:none;stroke:#FFFFFF;stroke-linecap:round;stroke-linejoin:round;stroke-miterlimit:10;"
					d="M184.087,310.874
				c0,0,4.521-7.151,11.239-5.27" />
				<path style="fill:none;stroke:#FFFFFF;stroke-linecap:round;stroke-linejoin:round;stroke-miterlimit:10;"
					d="M188.042,286.931
				c0,0,7.723,3.928,8.979,10.859" />
				<path style="fill:none;stroke:#FFFFFF;stroke-linecap:round;stroke-linejoin:round;stroke-miterlimit:10;"
					d="M182.154,235.631
				c16.025,0.729,24.913,8.564,24.913,8.564" />
				<path style="fill:none;stroke:#FFFFFF;stroke-linecap:round;stroke-linejoin:round;stroke-miterlimit:10;"
					d="M177.811,221.408
				c9.143,8.293,22.475,7.34,33.903,4.483c7.618,5.714,18.094,8.571,26.275,3.234" />
				<path style="fill:none;stroke:#FFFFFF;stroke-linecap:round;stroke-linejoin:round;stroke-miterlimit:10;"
					d="M211.839,186.68
				c0,0,2.763,18.492,0,30.343" />
				<path style="fill:none;stroke:#FFFFFF;stroke-linecap:round;stroke-linejoin:round;stroke-miterlimit:10;"
					d="M185.976,186.68
				c0,0,5.52-2.26,16.822,0l-2.171,13.853l-9.122,5.737l-9.006-5.737c0,0-0.045-5.565,1.587-9.081" />
				<path style="fill:none;stroke:#FFFFFF;stroke-linecap:round;stroke-linejoin:round;stroke-miterlimit:10;"
					d="M221.904,187.685
				c0,0,3.836,13.262,3.164,16.426l8.613,5.97l5.151-5.108c0,0-0.91-13.356-3.78-16.076c0,0-6.593-1.213-9.871-1.213" />
				<path style="fill:none;stroke:#FFFFFF;stroke-linecap:round;stroke-linejoin:round;stroke-miterlimit:10;"
					d="M191.505,175.448
				c0,0,23.156-5.069,40.237,1.688" />
			</g>
			<g>
				<path
					style="fill:#FFFFFF;stroke:#263238;stroke-linecap:round;stroke-linejoin:round;stroke-miterlimit:10;"
					d="
				M284.482,204.832c3.018,3.155,6.151,15.463,0.864,15.036c-5.287-0.427-20.797-10.484-20.797-10.484L284.482,204.832z" />
				<g>
					<g>
						<path
							style="fill:#757575;stroke:#263238;stroke-linecap:round;stroke-linejoin:round;stroke-miterlimit:10;"
							d="
						M249.431,450.797c0,0,0.827,7.637-1.118,12.445h-7.678c0,0-2.51-3.96-1.098-12.445H249.431z" />
						<path
							style="fill:#757575;stroke:#263238;stroke-linecap:round;stroke-linejoin:round;stroke-miterlimit:10;"
							d="
						M342.756,450.797c0,0,2.366,6.222-1.118,12.445h-7.027c0,0-3.16-3.96-1.749-12.445H342.756z" />
						<path
							style="fill:none;stroke:#263238;stroke-linecap:round;stroke-linejoin:round;stroke-miterlimit:10;"
							d="M334.108,451.268
						c0,0,1.495,5.374,0.719,10.088" />
						<path
							style="fill:#999999;stroke:#263238;stroke-linecap:round;stroke-linejoin:round;stroke-miterlimit:10;"
							d="
						M345.172,453.179H236.866c-2.473,0-4.509-2.007-4.546-4.483l-0.064-4.201c-0.038-2.476,1.937-4.483,4.41-4.483h108.305
						c2.473,0,4.509,2.007,4.547,4.483l0.064,4.201C349.619,451.172,347.645,453.179,345.172,453.179z" />
						<g>
							<defs>
								<path id="XMLID_449_" d="M230.629,277.499c0,0-2.974,84.312-2.113,142.496c0.099,6.714,1.307,12.356,2.755,16.758
								c2.129,6.47,8.755,10.908,16.182,10.908h86.922c5.524,0,10.684-2.458,13.69-6.618c4.152-5.746,8.853-14.524,7.369-23.433
								C352.9,402.392,230.629,277.499,230.629,277.499z" />
							</defs>
							<use xlink:href="#XMLID_449_" style="overflow:visible;fill:#C92C6D;" />
							<clipPath id="XMLID_00000104684888281941461450000008082888134060514945_">
								<use xlink:href="#XMLID_449_" style="overflow:visible;" />
							</clipPath>
							<path
								style="opacity:0.3;clip-path:url(#XMLID_00000104684888281941461450000008082888134060514945_);"
								d="M230.629,277.499
							c0,0-2.974,84.312-2.113,142.496c0.099,6.714,1.307,12.356,2.755,16.758c2.129,6.47,8.755,10.908,16.182,10.908h86.922
							c5.524,0,10.684-2.458,13.69-6.618c4.152-5.746,8.853-14.524,7.369-23.433C352.9,402.392,230.629,277.499,230.629,277.499z" />

							<path
								style="clip-path:url(#XMLID_00000104684888281941461450000008082888134060514945_);fill:none;stroke:#263238;stroke-linecap:round;stroke-linejoin:round;stroke-miterlimit:10;"
								d="
							M233.694,430.084L233.694,430.084c2.456,4.452,7.484,7.278,12.949,7.278h89.516c4.916,0,9.452-2.292,12.003-6.065l1.128-1.668
							" />

							<use xlink:href="#XMLID_449_"
								style="overflow:visible;fill:none;stroke:#263238;stroke-linecap:round;stroke-linejoin:round;stroke-miterlimit:10;" />
						</g>
						<polygon style="fill:#BFBFBF;stroke:#263238;stroke-miterlimit:10;" points="304.544,298.608 295.167,216.016 253.968,216.016 
						255.336,305.604 251.037,301.115 249.67,211.527 299.439,211.527 308.817,294.118 					" />
						<path
							style="fill:#757575;stroke:#263238;stroke-linecap:round;stroke-linejoin:round;stroke-miterlimit:10;"
							d="
						M249.733,215.662c0,0,2.014-0.989,4.235,0.354h41.199c0,0,3.008-1.244,4.702-0.705l0.563-1.61
						c0.531-1.521-0.618-3.13-2.235-3.13h-47.069c-1.617,0-2.717,1.61-2.14,3.13L249.733,215.662z" />
					</g>
					<g>
						<path
							style="fill:#C92C6D;stroke:#263238;stroke-linecap:round;stroke-linejoin:round;stroke-miterlimit:10;"
							d="
						M346.171,427.716H242.233c-6.253,0-11.347-5.694-11.377-12.595l-0.595-135.314c-0.02-4.421,3.93-7.954,8.82-7.954h81.293
						c4.891,0,9.496,3.533,10.297,7.954l24.538,135.314C356.46,422.022,352.424,427.716,346.171,427.716z" />
						<g style="opacity:0.2;">
							<g>
								<path d="M245.483,280.196L245.483,280.196c-1.032,0-1.838,1.1-1.8,2.463l3.547,127.071c0.057,2.049,1.137,3.718,2.411,3.718
								l0,0c1.274,0,2.25-1.67,2.179-3.718l-4.383-127.071C247.39,281.296,246.515,280.196,245.483,280.196z" />
								<path d="M267.801,280.196L267.801,280.196c-1.032,0-1.795,1.1-1.703,2.463l8.541,127.071
								c0.138,2.049,1.283,3.718,2.558,3.718h0c1.274,0,2.184-1.67,2.033-3.718l-9.377-127.071
								C269.752,281.296,268.834,280.196,267.801,280.196z" />
								<path d="M290.876,280.196L290.876,280.196c-1.032,0-1.75,1.1-1.603,2.463l13.704,127.071
								c0.221,2.049,1.434,3.718,2.709,3.718l0,0c1.274,0,2.117-1.67,1.882-3.718l-14.54-127.071
								C292.871,281.296,291.908,280.196,290.876,280.196z" />
								<path d="M313.194,280.196L313.194,280.196c-1.032,0-1.707,1.1-1.507,2.463l18.698,127.071
								c0.302,2.049,1.58,3.718,2.855,3.718h0c1.274,0,2.051-1.67,1.736-3.718l-19.535-127.071
								C315.232,281.296,314.227,280.196,313.194,280.196z" />
							</g>
						</g>
						<g>

							<line
								style="fill:none;stroke:#263238;stroke-linecap:round;stroke-linejoin:round;stroke-miterlimit:10;"
								x1="246.698" y1="390.645" x2="245.273" y2="339.57" />
							<path
								style="fill:none;stroke:#263238;stroke-linecap:round;stroke-linejoin:round;stroke-miterlimit:10;"
								d="
							M254.171,406.683l0.265,6.978c0.083,2.173-1.446,3.95-3.417,3.95c-1.972,0-3.617-1.777-3.678-3.95l-0.221-7.921" />

							<line
								style="fill:none;stroke:#263238;stroke-linecap:round;stroke-linejoin:round;stroke-miterlimit:10;"
								x1="252.684" y1="367.587" x2="254.099" y2="404.788" />
							<path
								style="fill:none;stroke:#263238;stroke-linecap:round;stroke-linejoin:round;stroke-miterlimit:10;"
								d="
							M243.955,292.354l-0.27-9.676c-0.04-1.429,1.213-2.586,2.8-2.586c0.794,0,1.522,0.292,2.061,0.755
							c0.54,0.47,0.883,1.119,0.91,1.831l2.838,74.631" />

							<line
								style="fill:none;stroke:#263238;stroke-linecap:round;stroke-linejoin:round;stroke-miterlimit:10;"
								x1="244.137" y1="298.871" x2="244.029" y2="295.018" />

							<line
								style="fill:none;stroke:#263238;stroke-linecap:round;stroke-linejoin:round;stroke-miterlimit:10;"
								x1="245.052" y1="331.679" x2="244.167" y2="299.953" />
							<path
								style="fill:none;stroke:#263238;stroke-linecap:round;stroke-linejoin:round;stroke-miterlimit:10;"
								d="
							M279.449,375.257l2.994,38.404c0.169,2.173-1.288,3.95-3.26,3.95c-1.972,0-3.688-1.777-3.836-3.95l-0.602-8.872" />

							<line
								style="fill:none;stroke:#263238;stroke-linecap:round;stroke-linejoin:round;stroke-miterlimit:10;"
								x1="274.302" y1="309.236" x2="278.923" y2="368.511" />
							<path
								style="fill:none;stroke:#263238;stroke-linecap:round;stroke-linejoin:round;stroke-miterlimit:10;"
								d="
							M266.857,288.502l-0.395-5.824c-0.097-1.429,1.109-2.586,2.697-2.586c0.794,0,1.534,0.292,2.091,0.755
							c0.559,0.47,0.927,1.119,0.983,1.831l1.836,23.554" />

							<line
								style="fill:none;stroke:#263238;stroke-linecap:round;stroke-linejoin:round;stroke-miterlimit:10;"
								x1="268.859" y1="318.012" x2="267.71" y2="301.076" />

							<line
								style="fill:none;stroke:#263238;stroke-linecap:round;stroke-linejoin:round;stroke-miterlimit:10;"
								x1="273.671" y1="388.943" x2="269.314" y2="324.726" />
							<path
								style="fill:none;stroke:#263238;stroke-linecap:round;stroke-linejoin:round;stroke-miterlimit:10;"
								d="
							M291.938,307.731l-2.7-25.052c-0.154-1.429,1.006-2.586,2.593-2.586c0.794,0,1.545,0.292,2.121,0.755
							c0.577,0.47,0.972,1.119,1.056,1.831l0.454,3.851" />

							<line
								style="fill:none;stroke:#263238;stroke-linecap:round;stroke-linejoin:round;stroke-miterlimit:10;"
								x1="297.421" y1="358.601" x2="294.154" y2="328.286" />
							<path
								style="fill:none;stroke:#263238;stroke-linecap:round;stroke-linejoin:round;stroke-miterlimit:10;"
								d="
							M296.016,291.222l14.435,122.438c0.256,2.173-1.13,3.95-3.102,3.95c-1.972,0-3.759-1.777-3.993-3.95l-4.463-41.409" />
							<path
								style="fill:none;stroke:#263238;stroke-linecap:round;stroke-linejoin:round;stroke-miterlimit:10;"
								d="
							M319.253,331.679l-7.238-49c-0.211-1.429,0.903-2.586,2.49-2.586c0.794,0,1.557,0.292,2.151,0.755
							c0.596,0.47,1.017,1.119,1.129,1.831l0.404,2.561" />

							<line
								style="fill:none;stroke:#263238;stroke-linecap:round;stroke-linejoin:round;stroke-miterlimit:10;"
								x1="321.249" y1="345.191" x2="320.622" y2="340.949" />

							<line
								style="fill:none;stroke:#263238;stroke-linecap:round;stroke-linejoin:round;stroke-miterlimit:10;"
								x1="329.608" y1="401.78" x2="321.803" y2="348.943" />
							<path
								style="fill:none;stroke:#263238;stroke-linecap:round;stroke-linejoin:round;stroke-miterlimit:10;"
								d="
							M333.431,381.813l5.027,31.848c0.343,2.173-0.973,3.95-2.944,3.95c-1.972,0-3.83-1.777-4.151-3.95l-0.746-5.052" />

							<line
								style="fill:none;stroke:#263238;stroke-linecap:round;stroke-linejoin:round;stroke-miterlimit:10;"
								x1="321.503" y1="306.233" x2="332.308" y2="374.693" />

							<line
								style="fill:none;stroke:#263238;stroke-linecap:round;stroke-linejoin:round;stroke-miterlimit:10;"
								x1="319.523" y1="293.69" x2="320.847" y2="302.078" />
						</g>
						<g>
							<g>
								<path
									style="fill:#FFFFFF;stroke:#263238;stroke-linecap:round;stroke-linejoin:round;stroke-miterlimit:10;"
									d="
								M250.469,283.821l-5.792,18.326c-0.611,1.933,1.272,3.826,3.39,3.395l20.631-4.204c2.085-0.425,2.735-2.813,1.183-4.291
								l-14.836-14.125C253.575,281.521,251.039,282.018,250.469,283.821z" />
								<path
									style="fill:#FFFFFF;stroke:#263238;stroke-linecap:round;stroke-linejoin:round;stroke-miterlimit:10;"
									d="
								M247.686,304.095c-0.633,0.129-1.051-0.208-1.201-0.358c-0.15-0.15-0.48-0.562-0.299-1.14l5.749-18.354
								c0.17-0.542,0.66-0.693,0.863-0.733c0.202-0.04,0.722-0.087,1.164,0.334l14.833,14.172c0.464,0.443,0.392,0.933,0.34,1.123
								c-0.053,0.19-0.242,0.647-0.865,0.773L247.686,304.095z" />
								<g>
									<path
										style="fill:none;stroke:#263238;stroke-linecap:round;stroke-linejoin:round;stroke-miterlimit:10;"
										d="
									M262.204,300.081l-2.583-2.518l-0.158-0.549l-5.481,1.105l0.201,0.726l-0.892,3.231l1.391-0.282c0,0,0.538-2.343,2.502-2.74
									c1.961-0.396,3.761,1.469,3.761,1.469" />
									<polyline
										style="fill:none;stroke:#263238;stroke-linecap:round;stroke-linejoin:round;stroke-miterlimit:10;"
										points="
									254.635,297.278 254.811,295.371 254.656,294.818 257.031,294.342 257.227,295.033 258.509,296.498 								" />
									<polyline
										style="fill:none;stroke:#263238;stroke-linecap:round;stroke-linejoin:round;stroke-miterlimit:10;"
										points="
									254.941,293.741 254.062,289.225 254.613,289.116 256.349,293.459 								" />

									<line
										style="fill:none;stroke:#263238;stroke-linecap:round;stroke-linejoin:round;stroke-miterlimit:10;"
										x1="253.189" y1="288.469" x2="255.099" y2="288.091" />

									<line
										style="fill:none;stroke:#263238;stroke-linecap:round;stroke-linejoin:round;stroke-miterlimit:10;"
										x1="253.916" y1="287.47" x2="253.793" y2="287.032" />
								</g>
								<path style="opacity:0.6;fill:#C92C6D;" d="M263.55,299.974c0,0-3.093-2.793-3.3-3.564l-0.924-0.485
								c0,0-1.046-1.414-1.288-2.275c-0.242-0.858-1.218-1.189-1.447-2.581c-0.227-1.385-0.931-1.848-0.931-1.848l0.567-0.838
								c0,0-1.645-0.565-1.698-1.217c-0.053-0.651-0.142-1.128-0.734-1.071c-0.592,0.056-0.753,1.438-0.753,1.438
								s-0.874,1.223-0.733,1.629c0.14,0.407,0.717,0.702,0.717,0.702s0.848,3.933,0.665,4.207c-0.183,0.274-0.308,1-0.335,1.789
								c-0.026,0.792-0.292,1.936-0.714,2.03c-0.422,0.094-0.847,4.548-0.847,4.548l-2.595,0.455
								c-0.691,0.121-1.302-0.481-1.135-1.116l4.431-16.796c0.144-0.546,0.906-0.703,1.336-0.276l13.262,13.199
								c0.508,0.505,0.277,1.298-0.421,1.439L263.55,299.974z" />
							</g>
							<g>
								<path
									style="fill:#FFFFFF;stroke:#263238;stroke-linecap:round;stroke-linejoin:round;stroke-miterlimit:10;"
									d="
								M316.111,304.727l-18.341-3.377c-1.43-0.263-2.481-1.531-2.348-2.826l1.374-13.445c0.126-1.231,1.351-2.025,2.738-1.777
								l17.786,3.173c1.404,0.25,2.48,1.462,2.403,2.71l-0.841,13.641C318.8,304.14,317.559,304.993,316.111,304.727z" />
								<path style="opacity:0.6;fill:#C92C6D;" d="M316.259,304.236l-18.588-3.42c-1.015-0.187-1.762-1.087-1.669-2.007l1.398-13.82
								c0.089-0.875,0.959-1.44,1.946-1.264l18.055,3.223c0.998,0.178,1.763,1.04,1.707,1.927l-0.88,14.011
								C318.169,303.82,317.287,304.425,316.259,304.236z" />
								<path
									style="fill:#FFFFFF;stroke:#263238;stroke-linecap:round;stroke-linejoin:round;stroke-miterlimit:10;"
									d="
								M297.91,299.92c-0.56-0.103-0.975-0.601-0.924-1.109l1.338-13.458c0.048-0.484,0.532-0.799,1.078-0.701l17.827,3.188
								c0.552,0.099,0.976,0.578,0.945,1.068l-0.878,13.627c-0.033,0.515-0.522,0.85-1.089,0.746L297.91,299.92z" />
								<path style="opacity:0.6;fill:#C92C6D;" d="M298.367,291.629h0.867l-0.297,2.517l2.22,0.555l0.401-5.682l-0.953-1.291
								l1.632-0.122l0.135-0.888l1.528,1.785l-1.171,0.963l-0.391,3.789l2.076,0.577c0,0-1.062-3.452,3.485-2.81l0.998-1.62
								l0.648,1.695c0,0,1.286,0.191,2.105,1.26c0.822,1.073,0.856,3.063,0.856,3.063h1.598l0.635-3.79c0,0-1.562-0.934-1.675-1.356
								c-0.113-0.421,2.154-0.872,2.154-0.872s2.037,1.408,1.523,1.695c-0.515,0.288-0.949,1.047-0.949,1.047l-0.531,9.482
								l0.724,0.725l-18.075-3.48L298.367,291.629z" />
								<polyline
									style="fill:none;stroke:#263238;stroke-linecap:round;stroke-linejoin:round;stroke-miterlimit:10;"
									points="
								303.708,299.492 304.102,295.019 312.675,296.577 312.347,301.074 							" />
								<polyline
									style="fill:none;stroke:#263238;stroke-linecap:round;stroke-linejoin:round;stroke-miterlimit:10;"
									points="
								307.193,299.629 307.344,297.79 309.101,298.111 308.956,299.952 							" />

								<line
									style="fill:none;stroke:#263238;stroke-linecap:round;stroke-linejoin:round;stroke-miterlimit:10;"
									x1="302.969" y1="293.688" x2="314.148" y2="295.716" />
								<path
									style="fill:none;stroke:#263238;stroke-linecap:round;stroke-linejoin:round;stroke-miterlimit:10;"
									d="
								M304.29,292.877c0,0-0.514-2.392,3.609-1.856l0.998-1.62l0.739,1.933c0,0,3.352,0.952,2.888,3.034" />
								<polyline
									style="fill:none;stroke:#263238;stroke-linecap:round;stroke-linejoin:round;stroke-miterlimit:10;"
									points="
								300.808,298.46 301.662,289.273 302.729,289.465 302.449,292.543 							" />

								<line
									style="fill:none;stroke:#263238;stroke-linecap:round;stroke-linejoin:round;stroke-miterlimit:10;"
									x1="300.629" y1="287.914" x2="303.9" y2="288.502" />

								<line
									style="fill:none;stroke:#263238;stroke-linecap:round;stroke-linejoin:round;stroke-miterlimit:10;"
									x1="302.457" y1="286.526" x2="302.383" y2="287.336" />
								<polyline
									style="fill:none;stroke:#263238;stroke-linecap:round;stroke-linejoin:round;stroke-miterlimit:10;"
									points="
								315.183,301.092 315.815,291.822 314.739,291.629 314.522,294.73 							" />

								<line
									style="fill:none;stroke:#263238;stroke-linecap:round;stroke-linejoin:round;stroke-miterlimit:10;"
									x1="313.747" y1="290.272" x2="317.046" y2="290.865" />

								<line
									style="fill:none;stroke:#263238;stroke-linecap:round;stroke-linejoin:round;stroke-miterlimit:10;"
									x1="315.475" y1="288.859" x2="315.419" y2="289.675" />
								<polyline
									style="fill:none;stroke:#263238;stroke-linecap:round;stroke-linejoin:round;stroke-miterlimit:10;"
									points="
								300.087,293.621 299.064,293.435 299.278,291.225 298.565,291.096 							" />
							</g>
							<g>
								<path style="fill:#FFFFFF;stroke:#263238;stroke-miterlimit:10;" d="M307.01,353.69c-0.253,8.112-7.124,13.775-15.312,12.465
								c-8.155-1.305-14.234-8.991-13.62-16.988c0.599-7.801,7.375-13.023,15.174-11.831
								C301.082,338.532,307.256,345.778,307.01,353.69z" />
								<path style="opacity:0.6;fill:#C92C6D;" d="M280.885,351.847c0,0-1.033-3.36,2.07-8.103
								c3.057-4.673,9.677-5.313,14.376-2.455c4.742,2.884,6.79,8.438,6.917,10.903c0.128,2.484-0.654,3.538-0.654,3.538h-0.763
								l0.064-1.714l-1.36-0.213l-0.056,1.411l-1.719-0.439l-0.482,3.826l-1.938-0.306l0.058-1.258l-1.654-0.845
								c0,0-1.147-5.549-0.439-8.927c0,0,3.804-0.577,3.645-1.99c-0.158-1.406-3.364-2.281-3.364-2.281s0.352-1.814-1.153-1.725
								c-1.504,0.089-1.623,1.642-1.623,1.642s-3.68-0.744-3.778,0.831c-0.099,1.582,4.137,2.648,4.137,2.648l-1.546,8.823
								l-1.52-0.439l0.56-1.73l-2.901-2.387l-0.327,5.534h-1.112l-0.088-4.774h-2.44l-0.602,1.797L280.885,351.847z" />
								<path style="fill:none;stroke:#263238;stroke-miterlimit:10;" d="M291.794,364.38c-7.163-1.143-12.54-7.911-12.019-14.948
								c0.51-6.886,6.503-11.522,13.39-10.467c6.91,1.059,12.361,7.484,12.125,14.456
								C305.049,360.547,298.982,365.527,291.794,364.38z" />
								<path
									style="fill:none;stroke:#263238;stroke-linecap:round;stroke-linejoin:round;stroke-miterlimit:10;"
									d="
								M290.603,362.644c0,0,2.121-6.044,2.705-14.904" />
								<path
									style="fill:none;stroke:#263238;stroke-linecap:round;stroke-linejoin:round;stroke-miterlimit:10;"
									d="
								M294.876,347.983c0,0-0.275,9.996,1.11,14.629" />
								<path
									style="fill:none;stroke:#263238;stroke-linecap:round;stroke-linejoin:round;stroke-miterlimit:10;"
									d="
								M290.519,345.191c0,0,3.128,2.38,7.37,1.142" />

								<line
									style="fill:none;stroke:#263238;stroke-linecap:round;stroke-linejoin:round;stroke-miterlimit:10;"
									x1="289.032" y1="343.744" x2="298.949" y2="345.277" />
								<path
									style="fill:none;stroke:#263238;stroke-linecap:round;stroke-linejoin:round;stroke-miterlimit:10;"
									d="
								M290.639,343.109c0,0,4.193-0.893,7.345,1.134" />

								<line
									style="fill:none;stroke:#263238;stroke-linecap:round;stroke-linejoin:round;stroke-miterlimit:10;"
									x1="294.449" y1="340.952" x2="294.344" y2="342.996" />
								<polyline
									style="fill:none;stroke:#263238;stroke-linecap:round;stroke-linejoin:round;stroke-miterlimit:10;"
									points="
								290.966,356.141 289.445,355.901 289.564,353.861 288.449,352.491 288.159,357.308 285.607,356.905 285.915,352.094 
								284.34,351.847 284.181,354.242 281.474,353.816 							" />
								<polyline
									style="fill:none;stroke:#263238;stroke-linecap:round;stroke-linejoin:round;stroke-miterlimit:10;"
									points="
								296.26,356.86 297.398,357.039 297.34,358.297 299.278,358.603 299.415,355.408 301.459,355.729 301.535,353.803 
								302.895,354.016 302.799,356.569 303.71,356.712 							" />
							</g>
							<g>
								<path
									style="fill:#FFFFFF;stroke:#263238;stroke-linecap:round;stroke-linejoin:round;stroke-miterlimit:10;"
									d="
								M318.967,374.525l-12.01,2.688c-1.388,0.311-2.421,1.4-2.711,2.862l-2.576,12.991c-0.303,1.527,0.203,3.215,1.331,4.426
								l9.98,10.715c1.168,1.254,2.784,1.818,4.234,1.476l12.551-2.957c1.437-0.339,2.468-1.52,2.705-3.095l2.018-13.393
								c0.227-1.507-0.353-3.158-1.519-4.333l-9.963-10.044C321.881,374.725,320.342,374.217,318.967,374.525z" />
								<path
									style="fill:#FFFFFF;stroke:#263238;stroke-linecap:round;stroke-linejoin:round;stroke-miterlimit:10;"
									d="
								M316.583,407.683c-0.815,0.191-1.73-0.127-2.389-0.831l-9.978-10.673c-0.636-0.68-0.926-1.637-0.757-2.498l2.544-13.015
								c0.162-0.825,0.749-1.447,1.532-1.623l12.041-2.703c0.777-0.174,1.653,0.116,2.288,0.758l9.965,10.083
								c0.656,0.664,0.983,1.602,0.853,2.451L330.629,403c-0.136,0.885-0.721,1.553-1.528,1.742L316.583,407.683z" />
								<path style="opacity:0.6;fill:#C92C6D;" d="M304.902,393.444l2.703-12.871l12.839-3.015l11.07,10.495l-0.075,4.76
								c0,0-1.326-1.061-3.085-1.164l-1.359-1.734c0,0,1.956-4.12-1.644-5.708c-3.583-1.58-4.784,1.874-3.855,4.738l-2.533,1.702
								l-8.873-4.892l-4.416,8.156L304.902,393.444z" />

								<line
									style="fill:#FFFFFF;stroke:#263238;stroke-linecap:round;stroke-linejoin:round;stroke-miterlimit:10;"
									x1="309.863" y1="399.474" x2="330.577" y2="394.677" />
								<polyline
									style="fill:#FFFFFF;stroke:#263238;stroke-linecap:round;stroke-linejoin:round;stroke-miterlimit:10;"
									points="
								306.201,395.394 310.67,386.322 323.938,394.881 							" />

								<line
									style="fill:#FFFFFF;stroke:#263238;stroke-linecap:round;stroke-linejoin:round;stroke-miterlimit:10;"
									x1="307.891" y1="391.964" x2="313.638" y2="390.648" />

								<line
									style="fill:#FFFFFF;stroke:#263238;stroke-linecap:round;stroke-linejoin:round;stroke-miterlimit:10;"
									x1="312.16" y1="393.618" x2="319.146" y2="392.012" />

								<line
									style="fill:#FFFFFF;stroke:#263238;stroke-linecap:round;stroke-linejoin:round;stroke-miterlimit:10;"
									x1="308.164" y1="397.294" x2="316.737" y2="395.316" />
								<path
									style="fill:#FFFFFF;stroke:#263238;stroke-linecap:round;stroke-linejoin:round;stroke-miterlimit:10;"
									d="
								M320.915,391.007c0,0,1.63-0.584,1.813-1.131c0.182-0.546-0.866-3.413-0.126-4.18c0.738-0.765,2.615-0.297,2.877-0.058
								c0.262,0.239,1.294,2.205,1.299,2.756c0.006,0.552-0.976,0.878-0.976,0.878" />
								<path
									style="fill:#FFFFFF;stroke:#263238;stroke-linecap:round;stroke-linejoin:round;stroke-miterlimit:10;"
									d="
								M326.427,388.946c0,0,1.557,3.775,1.85,3.707c0.293-0.068,1.457-0.437,1.878,0.791" />
								<path
									style="fill:#FFFFFF;stroke:#263238;stroke-linecap:round;stroke-linejoin:round;stroke-miterlimit:10;"
									d="
								M324.966,391.384c0,0,0.422,1.529,1.229,1.75c0.807,0.222,1.179,0.238,1.403,0.901" />
								<polygon style="fill:#C92C6D;"
									points="310.732,400.903 330.259,396.303 329.365,403.083 315.668,406.682 							" />
							</g>
							<g>
								<path style="fill:#FFFFFF;stroke:#263238;stroke-miterlimit:10;" d="M297.334,322.789l4.096-1.967
								c0.557-0.267,0.727-0.943,0.38-1.509l-1.343-2.193c-0.343-0.561-1.07-0.801-1.624-0.537l-0.547,0.261
								c-0.555,0.264-1.282,0.024-1.622-0.536l-3.914-6.448c-0.332-0.547-1.048-0.781-1.599-0.523l-1.5,0.703l0,0l-4.723,2.209l0,0
								l-7.402,3.461l0,0l-3.835,1.793c-0.504,0.236-0.728,0.8-0.527,1.333l0.241,0.639c-0.668-0.377-1.325-0.491-1.867-0.491
								c-0.683,0-1.38,0.171-2.133,0.523l-1.691,0.791l0,0l-6.785,3.174c-0.578,0.27-0.795,0.955-0.485,1.53l0,0
								c-0.648-0.254-1.306-0.396-1.97-0.396c-0.614,0-1.218,0.112-1.795,0.333c-1.068,0.409-2.004,1.187-2.698,2.206
								c-0.228,0.335-0.636,0.507-1.057,0.465c-0.246-0.024-0.491-0.037-0.734-0.037c-1.021,0-1.982,0.22-2.779,0.634
								c-1.498,0.779-2.422,2.197-2.601,4.002l-0.338-0.662c-0.3-0.587-1.022-0.839-1.614-0.563l-2.459,1.15
								c-0.594,0.278-0.836,0.982-0.539,1.574l5.802,11.56c0.309,0.615,1.05,0.879,1.654,0.589l2.5-1.202
								c0.601-0.289,0.835-1.019,0.523-1.63l-0.444-0.868c-0.503-0.984,0.419-2.026,1.457-1.654
								c1.796,0.643,3.686,0.996,5.306,1.186c0.393,0.049,0.719,0.087,1.057,0.12l0.137,0.004c0.673,0,1.291-0.325,1.656-0.871
								c0.144-0.216,0.313-0.484,0.51-0.799c1.749-2.76,3.622-6.774,2.709-10.347c-0.204-0.798-0.549-1.532-1.01-2.196l0.207-0.098
								l4.294,7.911c0.324,0.596,1.061,0.852,1.647,0.57l3.479-1.672l0,0l4.782-2.298l0,0.001l4.391-2.111l-0.099-0.249l0.168,0.217
								l4.508-2.165l0-0.001l3.447-1.655l0-0.001L297.334,322.789L297.334,322.789z" />
								<g>
									<path style="fill:#263238;"
										d="M243.549,333.415l1.662-0.78l5.435,10.694l-1.684,0.807L243.549,333.415z" />
									<path style="fill:#263238;" d="M262.101,324.715l4.983-2.337l0.805,1.456l-1.684,0.792l4.891,8.907l-1.633,0.782
									l-4.874-8.929l-1.693,0.796L262.101,324.715z" />
									<path style="fill:#263238;" d="M276.895,330.755c-0.239-0.226-0.39-0.362-0.865-1.211l-0.915-1.632
									c-0.538-0.96-1.058-1.161-1.79-0.813l-0.557,0.264l2.361,4.237l-1.622,0.777l-5.723-10.329l2.417-1.133
									c1.654-0.776,2.794-0.344,3.676,1.219l0.451,0.799c0.592,1.05,0.636,1.88,0.112,2.556l0.017,0.029
									c0.992-0.043,1.684,0.596,2.291,1.672l0.901,1.598c0.285,0.505,0.509,0.869,0.888,1.179L276.895,330.755z M270.196,322.749
									l1.752,3.143l0.629-0.298c0.599-0.284,0.816-0.72,0.357-1.539l-0.564-1.006c-0.408-0.727-0.834-0.93-1.401-0.663
									L270.196,322.749z" />
									<path style="fill:#263238;"
										d="M284.606,327.061l-1.613,0.773l-1.349-1.741l-1.964,0.937l0.791,2.012l-1.477,0.707
									l-4.172-11.001l2.319-1.087L284.606,327.061z M279.087,325.536l1.54-0.733l-3.692-4.786l-0.029,0.014L279.087,325.536z" />
									<path style="fill:#263238;" d="M286.273,323.847l0.029-0.014l-3.607-8.776l1.438-0.674l4.367,10.814l-2.37,1.135
									l-7.422-9.405l1.589-0.745L286.273,323.847z" />
									<path style="fill:#263238;" d="M288.903,317.498l2.147-1.016l0.853,1.428l-2.151,1.021l1.754,2.958l2.714-1.296l0.867,1.447
									l-4.297,2.059l-5.932-10.057l4.247-1.991l0.843,1.407l-2.691,1.266L288.903,317.498z" />
									<path style="fill:#263238;" d="M290.066,311.6l1.548-0.726l5.141,8.509l2.565-1.225l0.875,1.436l-4.135,1.981L290.066,311.6
									z" />
								</g>
								<path
									style="fill:#C92C6D;stroke:#263238;stroke-linecap:round;stroke-linejoin:round;stroke-miterlimit:10;"
									d="
								M260.515,327.201c-2.72-1.722-5.081,0.476-5.598,3.014c-2.426-1.21-5.75-0.848-6.044,2.257
								c-0.502,5.306,6.7,6.773,9.954,7.153c0.37,0.046,0.676,0.082,0.928,0.106c0.136-0.203,0.295-0.454,0.487-0.759
								C261.936,336.319,265.135,330.126,260.515,327.201z" />
							</g>
							<g>
								<path
									style="fill:#FFFFFF;stroke:#263238;stroke-linecap:round;stroke-linejoin:round;stroke-miterlimit:10;"
									d="
								M250.113,401.784c-2.496,0-4.662-2.034-5.036-4.714l-2.708-19.397c-0.186-1.333,0.13-2.646,0.888-3.697
								c0.756-1.049,1.862-1.714,3.116-1.877l19.423-2.523c0.195-0.026,0.39-0.038,0.583-0.038c2.378,0,4.515,1.859,4.972,4.341
								l3.533,19.173c0.258,1.402,0,2.792-0.731,3.915c-0.734,1.126-1.854,1.844-3.151,2.021l-20.274,2.755
								C250.521,401.771,250.316,401.784,250.113,401.784z" />
								<path
									style="fill:#FFFFFF;stroke:#263238;stroke-linecap:round;stroke-linejoin:round;stroke-miterlimit:10;"
									d="
								M270.653,397.021l-20.218,2.74c-1.7,0.23-3.292-1.087-3.555-2.933l-2.759-19.383c-0.247-1.734,0.882-3.306,2.519-3.519
								l19.476-2.538c1.623-0.212,3.19,1.002,3.502,2.719l3.484,19.186C273.433,395.119,272.338,396.793,270.653,397.021z" />

								<line
									style="fill:#FFFFFF;stroke:#263238;stroke-linecap:round;stroke-linejoin:round;stroke-miterlimit:10;"
									x1="248.125" y1="391.187" x2="269.738" y2="388.064" />
								<path
									style="fill:#FFFFFF;stroke:#263238;stroke-linecap:round;stroke-linejoin:round;stroke-miterlimit:10;"
									d="
								M269.179,389.59c0,0-3.545,0.383-2.903,1.213c0.643,0.832-0.615,1.795-2.87,2.053c-2.257,0.258-2.771,2.001-3.297,2.26
								c-0.527,0.259-4.723,1.753-6.118,1.428c-1.393-0.325,1.503-1.428-0.072-1.881c-1.573-0.453-5.168-0.582-4.77-1.227
								c0.398-0.644-0.994-1.249-0.994-1.249" />
								<path
									style="fill:#FFFFFF;stroke:#263238;stroke-linecap:round;stroke-linejoin:round;stroke-miterlimit:10;"
									d="
								M267.733,385.275c0,0-2.007-7.227-4.343-8.295" />
								<path
									style="fill:#FFFFFF;stroke:#263238;stroke-linecap:round;stroke-linejoin:round;stroke-miterlimit:10;"
									d="
								M262.215,376.808c0,0-1.613-0.419-2.103,1.309" />
								<path
									style="fill:#FFFFFF;stroke:#263238;stroke-linecap:round;stroke-linejoin:round;stroke-miterlimit:10;"
									d="
								M262.56,375.61c0,0-2.089-1.038-3.173-0.611" />
								<path
									style="fill:#FFFFFF;stroke:#263238;stroke-linecap:round;stroke-linejoin:round;stroke-miterlimit:10;"
									d="
								M263.317,375.61c0,0,0.483-1.829,1.818-1.829" />
								<path
									style="fill:#FFFFFF;stroke:#263238;stroke-linecap:round;stroke-linejoin:round;stroke-miterlimit:10;"
									d="
								M264.301,376.039c0,0,1.303-0.143,2.46,0.725" />
								<path
									style="fill:#FFFFFF;stroke:#263238;stroke-linecap:round;stroke-linejoin:round;stroke-miterlimit:10;"
									d="
								M247.475,385.275c0.345-0.305,2.458-6,3.701-5.618c1.244,0.383,4.18,3.371,5.187,3.527c1.008,0.156,3.56,3.046,3.56,3.046" />
								<path
									style="fill:#FFFFFF;stroke:#263238;stroke-linecap:round;stroke-linejoin:round;stroke-miterlimit:10;"
									d="
								M258.66,383.184c0,0,0.426-0.969,1.055-1.342c0.628-0.373,4.704,3.298,5.361,3.434" />
								<path style="opacity:0.6;fill:#C92C6D;" d="M246.305,383.541l-0.894-6.019c-0.186-1.25,0.631-2.385,1.813-2.527l12.094-1.456
								c0,0-1.464,0.992-1.664,1.715c-0.2,0.724,2.356,0.776,2.356,0.776s-1.332,1.218-1.117,2.088
								c0.216,0.872,0.942,1.739,1.292,1.522c0.35-0.217,1.644-2.391,2.506-1.522c0.865,0.872,3.283,6.099,3.283,6.099
								s-4.145-2.365-5.407-2.93c-1.26-0.564-2.835,0.947-2.835,0.947s-2.935,0.106-4.247-1.884
								c-1.304-1.978-3.018-2.532-4.27-1.516C247.96,379.855,246.305,383.541,246.305,383.541z" />
								<path style="opacity:0.6;fill:#C92C6D;" d="M260.339,373.053c0,0,1.665,0.789,2.155,1.276c0,0,1.729-1.828,2.824-1.673
								c1.096,0.155,1.871,1.491,1.301,1.673c-0.57,0.183-1.173,0.567-1.173,0.567s2.248,0.876,2.308,1.867
								c0.06,0.993-1.282,1.019-1.633,1.006c0,0,2.715,6.197,3.031,8.46l1.577-0.315l-2.038-11.79
								c-0.203-1.173-1.271-2.007-2.38-1.861L260.339,373.053z" />
								<path style="opacity:0.6;fill:#C92C6D;"
									d="M250.167,391.7l18.957-3c0,0-3.921,1.018-3.776,1.497
								c0.146,0.479,0.326,1.568-1.169,1.504c-1.494-0.064-4.295,1.221-4.357,1.8c-0.062,0.581-4.054,2.458-4.37,2.069
								c-0.315-0.389,0.78-1.424-0.253-1.811c-1.032-0.387-4.659,0.175-4.748-0.686C250.363,392.213,250.167,391.7,250.167,391.7z" />
							</g>
							<g>
								<path
									style="fill:#FFFFFF;stroke:#263238;stroke-linecap:round;stroke-linejoin:round;stroke-miterlimit:10;"
									d="
								M325.364,345.129l-14.888-9.934c-1.182-0.789-1.603-2.284-0.944-3.339l1.719-2.749c0.651-1.041,2.128-1.258,3.303-0.486
								l14.793,9.724c1.215,0.799,1.693,2.325,1.061,3.409l-1.667,2.863C328.101,345.716,326.587,345.945,325.364,345.129z" />
								<path style="opacity:0.6;fill:#C92C6D;" d="M311.615,333.09c0.785-1.249,1.948-2.845,1.948-2.845s1.643,2.029,2.161,2.133
								c0.519,0.104,0.817-0.229,1.857,0.258c1.042,0.487,0.343,0.298,1.945,1.68c1.609,1.388,3.636,2.378,4.352,2.451
								c0.716,0.073,1.272-0.577,1.918,0.398c0.648,0.978,1.698,2.404,1.698,2.404l0.22,1.384l-1.515,1.961
								c0,0-3.147-1.518-3.025-2.656c0.122-1.134-2.645-1.443-2.645-1.443s-1.826,0.363-2.123-0.482
								c-0.296-0.842-1.338-2.124-1.338-2.124h1.676l-1.947-1.894l-3.483,0.58L311.615,333.09z" />
								<path
									style="fill:none;stroke:#263238;stroke-linecap:round;stroke-linejoin:round;stroke-miterlimit:10;"
									d="
								M313.926,330.679c0,0-1.379,2.431-0.96,2.411c0.419-0.02,1.467,1.225,1.467,1.225" />
								<path
									style="fill:none;stroke:#263238;stroke-linecap:round;stroke-linejoin:round;stroke-miterlimit:10;"
									d="
								M316.344,333.434c0.198-0.223,0.411-0.455,0.715-0.525c0.304-0.07,0.721,0.098,0.809,0.412
								c0.027,0.099,0.115,0.25,0.182,0.185" />
								<path
									style="fill:none;stroke:#263238;stroke-linecap:round;stroke-linejoin:round;stroke-miterlimit:10;"
									d="
								M317.841,336.378c-0.238-0.413-0.035-0.897,0.298-1.157c0.332-0.26,0.77-0.372,1.147-0.571
								c0.081-0.043,0.165-0.091,0.263-0.083c0.194,0.016,0.324,0.227,0.426,0.402c0.309,0.528,0.76,0.991,1.288,1.321
								c-0.608,0.311-1.148,0.728-1.594,1.23c-0.113,0.127-0.225,0.274-0.219,0.456c0.006,0.181,0.192,0.389,0.366,0.351" />
								<path
									style="fill:none;stroke:#263238;stroke-linecap:round;stroke-linejoin:round;stroke-miterlimit:10;"
									d="
								M323.096,340.166c0.586-0.348,0.659-1.144,0.838-1.809c0.022-0.082,0.051-0.169,0.126-0.209
								c0.108-0.057,0.254,0.01,0.376,0.076c0.662,0.356,1.324,0.712,1.987,1.069" />
								<path
									style="fill:none;stroke:#263238;stroke-linecap:round;stroke-linejoin:round;stroke-miterlimit:10;"
									d="
								M324.791,342.751c-0.062-0.359,0.135-0.684,0.412-0.871c0.277-0.188,0.624-0.264,0.964-0.338" />
							</g>
						</g>
					</g>
				</g>
				<path
					style="fill:#FFFFFF;stroke:#263238;stroke-linecap:round;stroke-linejoin:round;stroke-miterlimit:10;"
					d="
				M286.523,219.629c-0.854,0.557-3.528-0.281-3.528-0.281s-3.008,1.887-5.571,1.642c0,0-1.347,1.717-5.732-1.111
				c0,0-0.774,2.771-3.665,1.518c-2.891-1.253-4.436-5.884-2.486-6.847c2.332-1.152,4.533,1.26,4.533,1.26s0.49-2.244,2.697-2.412
				c1.579-0.12,3.1,1.02,3.1,1.02s0.074-1.042,1.609-1.02c2.392,0.033,3.381,2.132,3.381,2.132s0.427-2.132,1.799-2.132
				c2.717,0,3.846,2.689,3.846,2.689" />
				<path
					style="fill:#FFFFFF;stroke:#263238;stroke-linecap:round;stroke-linejoin:round;stroke-miterlimit:10;"
					d="
				M264.069,200.533c-0.825,5.125-5.764,10.175-6.121,12.864c-0.358,2.689,4.721,4.926,5.619,5.112c0.898,0.186,3.943,2.423,5.011,0
				c1.068-2.423-4.371-3.539-4.371-3.539s8.092-2.38,8.553-4.263c0,0,6.99,2.628,11.421,0c4.431-2.628,1.742-5.615-5.707-10.175" />
				<path style="fill:none;stroke:#263238;stroke-linecap:round;stroke-linejoin:round;stroke-miterlimit:10;"
					d="M280.86,215.53
				c0,0,0.315,2.421,2.134,3.818" />
				<path style="fill:none;stroke:#263238;stroke-linecap:round;stroke-linejoin:round;stroke-miterlimit:10;"
					d="M275.87,214.417
				c-0.453,2.043,1.423,5.212,1.423,5.212" />
				<path style="fill:none;stroke:#263238;stroke-linecap:round;stroke-linejoin:round;stroke-miterlimit:10;"
					d="M270.073,215.809
				c0,0,0.029,3.17,1.618,4.07" />
			</g>
			<g>
				<g>
					<defs>
						<path id="XMLID_450_" d="M181.25,203.67c-0.19,1.42-0.46,2.87-0.8,4.36c-5.03,22.1-11.06,36.16-11.06,36.16
						s1.89,14.06-16.57,14.32c-18.46,0.25-22.53-20.4-16.58-40.68c0,0,3.52-18.74,11.3-31.08c3.08-4.91,6.84-8.8,11.31-10.12
						C173.52,172.31,183.98,184.13,181.25,203.67z" />
					</defs>
					<use xlink:href="#XMLID_450_" style="overflow:visible;fill:#757575;" />
					<clipPath id="XMLID_00000015322180060932900460000006595402453633445817_">
						<use xlink:href="#XMLID_450_" style="overflow:visible;" />
					</clipPath>
					<path
						style="opacity:0.2;clip-path:url(#XMLID_00000015322180060932900460000006595402453633445817_);fill:#FFFFFF;"
						d="
					M181.25,203.67c-3.18,9.51-10.19,16.57-19.22,15.68c-13.56-1.33-16.72-19.11-14.49-32.6c3.08-4.91,6.84-8.8,11.31-10.12
					C173.52,172.31,183.98,184.13,181.25,203.67z" />
					<path style="opacity:0.2;clip-path:url(#XMLID_00000015322180060932900460000006595402453633445817_);"
						d="M169.39,244.19
					c0,0,1.89,14.06-16.57,14.32c-0.49,0.01-0.97,0-1.43-0.03c-2.07-1.56-3.96-3.19-5.61-4.67c-9.14-8.17-5.37-8.7-2.45-7.38
					c2.93,1.32,18.18-2.64,11.98-5.18c-6.19-2.53-14.04-18.4-11.47-21.37c2.57-2.97,14.76,12.04,20.53,12.07
					c3.47,0.02,9.04-6.33,12.92-11.4C173.2,235.3,169.39,244.19,169.39,244.19z" />

					<use xlink:href="#XMLID_450_"
						style="overflow:visible;fill:none;stroke:#263238;stroke-linecap:round;stroke-linejoin:round;stroke-miterlimit:10;" />
				</g>
				<path style="fill:none;stroke:#263238;stroke-linecap:round;stroke-linejoin:round;stroke-miterlimit:10;"
					d="M146.265,188.898
				c-1.734,15.866,0.777,26.215,13.586,30.961c12.809,4.746,20.127-5.702,20.978-13.662" />
				<path style="fill:none;stroke:#263238;stroke-linecap:round;stroke-linejoin:round;stroke-miterlimit:10;"
					d="M157.689,220.959
				c0,0-5.875,13.189-6.126,17.71c-0.251,4.521,0.622,14.708-2.26,16.827" />
				<path style="fill:none;stroke:#263238;stroke-linecap:round;stroke-linejoin:round;stroke-miterlimit:10;"
					d="M161.106,221.7
				c0,0-5.525,11.695-5.776,14.709c-0.251,3.014,2.511,16.078,0,19.088" />
				<path style="fill:none;stroke:#263238;stroke-linecap:round;stroke-linejoin:round;stroke-miterlimit:10;"
					d="M169.394,244.194
				c0,0-8.798,10.049-21.348,6.028" />
				<path style="fill:none;stroke:#263238;stroke-linecap:round;stroke-linejoin:round;stroke-miterlimit:10;"
					d="M141.265,222.846
				c0,0,8.79,17.416,19.841,15.752" />
				<path style="fill:none;stroke:#263238;stroke-linecap:round;stroke-linejoin:round;stroke-miterlimit:10;"
					d="M161.106,177.136
				c0,0-9.795,2.009-11.804,12.809c-2.009,10.8,1.507,23.316,9.418,25.848" />
				<path style="fill:none;stroke:#263238;stroke-linecap:round;stroke-linejoin:round;stroke-miterlimit:10;"
					d="M180.447,192.708
				c0,0,3.124,22.509-12.309,22.806" />
				<g>
					<defs>
						<path id="XMLID_451_" d="M164.371,191.452c16.335-39.173,16.076-73.588,30.389-91.683c0,0,3.445-1.017,5.866,0
						c0,0-9.833,15.333-13.124,27.89c-3.291,12.558-9.821,48.975-18.109,65.049" />
					</defs>
					<use xlink:href="#XMLID_451_" style="overflow:visible;fill:#757575;" />
					<clipPath id="XMLID_00000108309405005173242400000001122878328547990959_">
						<use xlink:href="#XMLID_451_" style="overflow:visible;" />
					</clipPath>
					<path
						style="opacity:0.2;clip-path:url(#XMLID_00000108309405005173242400000001122878328547990959_);fill:#FFFFFF;"
						d="
					M164.371,191.452c16.335-39.173,16.076-73.588,30.389-91.683c0,0,3.445-1.017,5.866,0c0,0-9.833,15.333-13.124,27.89
					c-3.291,12.558-9.821,48.975-18.109,65.049" />

					<use xlink:href="#XMLID_451_"
						style="overflow:visible;fill:none;stroke:#263238;stroke-linecap:round;stroke-linejoin:round;stroke-miterlimit:10;" />
				</g>
			</g>
			<path style="fill:#263238;"
				d="M204.354,62.108c6.481-9.795,19.671-12.432,30.217-4.521c10.546,7.911,9.649,32.399,20.269,37.296
			c10.62,4.898,19.814-4.647,25.012,5.023c0,0-6.983-5.776-14.141,1.382c-5.687,5.687-13.049,2.782-13.049,2.782
			s3.506,6.636,15.783,3.623c0,0-8.51,12.558-26.703,11.679c-15.957-0.771-24.264-9.418-24.264-9.418s0,8.037,11.44,13.241
			c0,0-9.669,2.079-20.469-8.092c-9.116-8.586-7.786-17.586-7.786-17.586s-8.319,7.163-0.015,15.828c0,0-10.533-1.005-11.161-10.925
			c-0.362-5.722,6.279-12.055,7.409-17.33c0,0-17.078,7.447-18.209,14.818c-0.943,6.149,4.332,7.786,4.332,7.786
			c-6.844,1.381-16.137-10.62,0-19.626c16.137-9.006,12.75-16.496,15.573-20.85C201.416,62.862,204.354,62.108,204.354,62.108z" />
			<path style="fill:none;stroke:#263238;stroke-linecap:round;stroke-linejoin:round;stroke-miterlimit:10;" d="M233.571,122.011
			c0,0,2.955,10.351,6.719,13.285" />
			<path style="fill:none;stroke:#263238;stroke-linecap:round;stroke-linejoin:round;stroke-miterlimit:10;" d="M204.099,118.846
			c0,0-6.49,14.575-9.692,14.637" />
			<path style="fill:none;stroke:#263238;stroke-linecap:round;stroke-linejoin:round;stroke-miterlimit:10;" d="M228.231,139.813
			c0,0-16.053,18.791-25.433,18.396" />
			<path style="fill:none;stroke:#263238;stroke-linecap:round;stroke-linejoin:round;stroke-miterlimit:10;" d="M225.068,158.215
			c0,0,5.604,4.389,8.503,10.302" />
			<path style="fill:none;stroke:#263238;stroke-linecap:round;stroke-linejoin:round;stroke-miterlimit:10;" d="M193.529,170.675
			c0,0,7.999-6.73,20.658-4.949c12.659,1.78,14.044,3.758,14.044,3.758" />
			<g style="opacity:0.2;">
				<path style="fill:none;stroke:#FFFFFF;stroke-linecap:round;stroke-linejoin:round;stroke-miterlimit:10;"
					d="M206.604,63.963
				c-4.22,3.652-5.802,19.857,7.912,32.194s32.946,9.717,35.153,3.16" />
				<path style="fill:none;stroke:#FFFFFF;stroke-linecap:round;stroke-linejoin:round;stroke-miterlimit:10;"
					d="M205.286,90.297
				c0,0-3.175,16.685,10.229,24.791" />
				<path style="fill:none;stroke:#FFFFFF;stroke-linecap:round;stroke-linejoin:round;stroke-miterlimit:10;"
					d="M210.88,60.758
				c5.219-4.747,16.428-7.385,22.692,1.319c6.264,8.703,10.747,41.143,30,35.604" />
				<path style="fill:none;stroke:#FFFFFF;stroke-linecap:round;stroke-linejoin:round;stroke-miterlimit:10;"
					d="M214.516,63.963
				c8.176,2.334,6.583,18.949,12.127,26.334c5.544,7.385,10.516,11.975,18.258,9.02" />
				<path style="fill:none;stroke:#FFFFFF;stroke-linecap:round;stroke-linejoin:round;stroke-miterlimit:10;"
					d="M229.709,108.231
				c0,0,15.38,10.286,30.16,3.956" />
				<path style="fill:none;stroke:#FFFFFF;stroke-linecap:round;stroke-linejoin:round;stroke-miterlimit:10;"
					d="M199.253,72.099
				c0,0,3.963,9.43-11.749,16.056" />
			</g>
		</g>
	</g>
</svg>