<svg width="450" height="450" viewBox="0 0 450 450" fill="none" xmlns="http://www.w3.org/2000/svg">
<path d="M89.5205 139.709L127.448 368.671C127.646 369.869 128.858 370.616 130.017 370.253L350.599 301.307C351.526 301.018 352.11 300.105 351.986 299.142L330.403 131.889C330.255 130.746 329.176 129.964 328.045 130.18L208.773 152.921C208.009 153.066 207.23 152.756 206.775 152.124L184.355 120.972C183.901 120.342 183.123 120.031 182.36 120.175L91.1222 137.417C90.0542 137.618 89.3428 138.636 89.5205 139.709Z" fill="#68CFBB" stroke="#323537" stroke-width="4" stroke-linecap="round"/>
<rect x="76.7178" y="168.625" width="107.062" height="134.135" rx="2" transform="rotate(-11.4345 76.7178 168.625)" fill="white" stroke="#323537" stroke-width="4" stroke-linecap="round"/>
<path d="M97.6433 191.386L138.05 183.213M100.693 206.463L147.131 197.071M104.108 223.35L134.263 217.251" stroke="#323537" stroke-width="4"/>
<rect x="54" y="200.771" width="107.062" height="134.135" rx="2" transform="rotate(-20.2917 54 200.771)" fill="white" stroke="#323537" stroke-width="4" stroke-linecap="round"/>
<path d="M78.1806 220.039L116.847 205.742M83.5152 234.467L127.953 218.036M89.49 250.626L118.346 239.957" stroke="#323537" stroke-width="4" stroke-linecap="round"/>
<path d="M319.365 79.8115L351.344 73.8845M319.365 95.194L356.117 88.3824M319.365 112.422L343.23 107.999" stroke="#323537" stroke-width="4" stroke-linecap="round"/>
<rect width="75" height="70" rx="2" transform="matrix(0.983255 -0.182236 0 1 221.866 100.031)" fill="white" stroke="#323537" stroke-width="4"/>
<rect width="16" height="16" rx="2" transform="matrix(0.983255 -0.182236 0 1 214 93.4888)" fill="white" stroke="#323537" stroke-width="4"/>
<rect width="16" height="16" rx="2" transform="matrix(0.983255 -0.182236 0 1 214 163.489)" fill="white" stroke="#323537" stroke-width="4"/>
<rect width="16" height="16" rx="2" transform="matrix(0.983255 -0.182236 0 1 287.744 149.821)" fill="white" stroke="#323537" stroke-width="4"/>
<rect width="16" height="16" rx="2" transform="matrix(0.983255 -0.182236 0 1 287.744 79.821)" fill="white" stroke="#323537" stroke-width="4"/>
<path d="M236 150.526V137.562C236 136.644 236.625 135.844 237.515 135.621L250 132.5V122.599C250 121.664 250.648 120.854 251.559 120.648L265.5 117.5V107.64C265.5 106.686 266.173 105.865 267.108 105.678L278.108 103.478C279.345 103.231 280.5 104.178 280.5 105.44V141.874C280.5 142.821 279.836 143.639 278.909 143.832L265.5 146.631L250 150L238.419 152.482C237.174 152.748 236 151.799 236 150.526Z" fill="#F6F6F5"/>
<path d="M250 132.5L237.515 135.621C236.625 135.844 236 136.644 236 137.562V150.526C236 151.799 237.174 152.748 238.419 152.482L250 150M250 132.5V150M250 132.5V122.599C250 121.664 250.648 120.854 251.559 120.648L265.5 117.5M250 150L265.5 146.631M265.5 146.631L278.909 143.832C279.836 143.639 280.5 142.821 280.5 141.874V105.44C280.5 104.178 279.345 103.231 278.108 103.478L267.108 105.678C266.173 105.865 265.5 106.686 265.5 107.64V117.5M265.5 146.631V117.5" stroke="#323537" stroke-width="4" stroke-linecap="round"/>
<path d="M143.477 210.459L128.483 367.971C128.349 369.387 129.693 370.487 131.054 370.075L358.848 301.108C359.553 300.894 360.084 300.309 360.229 299.586L389.587 153.006C389.873 151.574 388.579 150.328 387.16 150.668L145.002 208.703C144.171 208.903 143.558 209.608 143.477 210.459Z" fill="#9C9BF4" stroke="#323537" stroke-width="4" stroke-linecap="round"/>
<path d="M293.985 196.403L290.264 236.118C290.135 237.494 291.407 238.583 292.746 238.244L349.78 223.809C350.525 223.62 351.097 223.02 351.249 222.266L359.377 182.022C359.667 180.587 358.367 179.337 356.944 179.683L295.503 194.646C294.674 194.848 294.064 195.553 293.985 196.403Z" fill="white"/>
<path d="M304.123 206.49L342.807 197.306M304.123 219.886L330.526 212.612M351.249 222.266L359.377 182.022C359.667 180.587 358.367 179.337 356.944 179.683L295.503 194.646C294.674 194.848 294.064 195.553 293.985 196.403L290.264 236.119C290.135 237.494 291.407 238.583 292.746 238.244L349.78 223.809C350.525 223.62 351.097 223.02 351.249 222.266Z" stroke="#323537" stroke-width="4" stroke-linecap="round"/>
<path d="M179.595 314.722L175.137 249.875C175.061 248.773 175.861 247.634 176.923 247.331L239.426 229.488C240.488 229.185 241.411 229.832 241.487 230.934L244.649 276.939L228 302.938L181.655 316.168C180.593 316.471 179.671 315.824 179.595 314.722Z" fill="#F5D26C"/>
<path d="M228 302.938L181.655 316.168C180.593 316.471 179.671 315.824 179.595 314.722L175.137 249.875C175.061 248.773 175.861 247.634 176.923 247.331L239.426 229.488C240.488 229.185 241.411 229.832 241.487 230.934L244.649 276.939M228 302.938L244.649 276.939M228 302.938L224.427 283.285C224.206 282.072 225.136 280.719 226.353 280.483L244.649 276.939" stroke="#323537" stroke-width="4" stroke-linecap="round"/>
<path d="M283.048 344.722L274.929 309.078C274.556 307.439 276.248 306.099 277.758 306.837L309.28 322.251C310.569 322.881 310.795 324.622 309.71 325.561L297.894 335.774L286.306 345.791C285.165 346.777 283.384 346.193 283.048 344.722Z" fill="#FEFEFE"/>
<path d="M297.894 335.774L286.306 345.791C285.165 346.777 283.384 346.193 283.048 344.722L274.929 309.078C274.556 307.439 276.248 306.099 277.758 306.837L309.28 322.251C310.569 322.881 310.795 324.622 309.71 325.561L297.894 335.774ZM297.894 335.774L312 350" stroke="#323537" stroke-width="4" stroke-linecap="round"/>
<path d="M71.7065 104.699L84.9386 96.9133C90.5417 93.6167 97.7497 95.3597 101.227 100.852V100.852C104.912 106.672 102.977 114.391 96.9822 117.783L63.5295 136.714C59.2382 139.143 53.8035 137.904 50.9881 133.856V133.856C47.7757 129.238 49.2331 122.856 54.1322 120.09L82.5446 104.047C85.3466 102.465 88.8892 103.228 90.7919 105.823V105.823C93.0309 108.877 92.1182 113.199 88.8356 115.087L67.5978 127.301" stroke="#323537" stroke-width="4" stroke-linecap="round"/>
<path d="M409.597 281.981L402.586 295.639C399.617 301.423 392.595 303.808 386.718 301.029V301.029C380.491 298.085 377.995 290.529 381.244 284.455L399.371 250.56C401.697 246.212 406.95 244.35 411.495 246.263V246.263C416.681 248.445 418.864 254.616 416.206 259.574L400.791 288.332C399.27 291.168 395.869 292.419 392.873 291.245V291.245C389.348 289.864 387.806 285.724 389.568 282.373L400.972 260.689" stroke="#323537" stroke-width="4" stroke-linecap="round"/>
<path d="M262.5 46.5V24.5M360.5 46.5L374.5 12M400.5 113.5L431.5 104.5M50 301L18 318.5M98 384.5L75 418M192.5 392.5V418" stroke="#323537" stroke-width="4" stroke-linecap="round"/>
</svg>
